<svg width="238" height="190" viewBox="0 0 238 190" fill="none" xmlns="http://www.w3.org/2000/svg">
<path d="M8.42756e-05 95.3599C8.42756e-05 136.219 25.8648 171.032 62.0927 184.279C67.6038 186.298 73.2927 187.793 79.0839 188.744C95.0158 191.36 111.351 189.875 126.551 184.428C163.008 171.29 189.062 136.359 189.045 95.3398C189.045 43.0928 146.725 0.719826 94.5225 0.719826C74.7937 0.691096 55.5547 6.87094 39.5247 18.386C15.5934 35.5531 8.42756e-05 63.6325 8.42756e-05 95.3599Z" fill="#E5E5E5"/>
<path d="M157 45H226C232.627 45 238 50.3726 238 57V144C238 150.627 232.627 156 226 156H157C150.373 156 145 150.627 145 144V57C145 50.3726 150.373 45 157 45Z" fill="#E6E6E6"/>
<path d="M158 47H225C231.075 47 236 51.9249 236 58V143C236 149.075 231.075 154 225 154H158C151.925 154 147 149.075 147 143V58C147 51.9249 151.925 47 158 47Z" fill="white"/>
<path d="M194 149.899C191.079 149.899 188.712 147.528 188.712 144.604C188.712 141.68 191.079 139.31 194 139.31C196.92 139.31 199.288 141.68 199.288 144.604C199.288 147.528 196.92 149.899 194 149.899Z" fill="#E6E6E6"/>
<path d="M191.893 84.9877H222.265V88.0985H191.893V84.9877Z" fill="#E6E6E6"/>
<path d="M176.426 94.3096H222.265V97.4204H176.426V94.3096Z" fill="#F9A826"/>
<path d="M180.925 103.69H222.265V106.801H180.925V103.69Z" fill="#E6E6E6"/>
<path d="M158.428 112.823H222.265V115.934H158.428V112.823Z" fill="#F9A826"/>
<path d="M169.576 121.52H221.601V124.631H169.576V121.52Z" fill="#E6E6E6"/>
<path d="M194.085 53.6473C196.309 53.6472 198.483 54.3074 200.332 55.5445C202.181 56.7815 203.623 58.5398 204.474 60.597C205.325 62.6542 205.548 64.9179 205.114 67.1019C204.68 69.2859 203.61 71.2921 202.037 72.8667C200.464 74.4414 198.461 75.5138 196.28 75.9483C194.098 76.3828 191.837 76.16 189.783 75.308C187.728 74.4559 185.972 73.013 184.736 71.1615C183.5 69.3101 182.841 67.1334 182.841 64.9066V64.906C182.841 63.4275 183.132 61.9635 183.697 60.5975C184.262 59.2316 185.09 57.9904 186.134 56.9449C187.178 55.8995 188.418 55.0702 189.782 54.5044C191.146 53.9386 192.609 53.6473 194.085 53.6473H194.085ZM194.085 57.0246C193.418 57.0246 192.765 57.2227 192.211 57.5938C191.656 57.9649 191.224 58.4924 190.968 59.1095C190.713 59.7266 190.646 60.4057 190.776 61.0608C190.907 61.716 191.228 62.3177 191.7 62.7901C192.171 63.2624 192.772 63.5841 193.427 63.7144C194.081 63.8447 194.759 63.7778 195.376 63.5222C195.992 63.2666 196.519 62.8337 196.889 62.2783C197.26 61.7229 197.458 61.0699 197.458 60.402C197.458 59.5063 197.103 58.6472 196.47 58.0138C195.837 57.3805 194.979 57.0247 194.085 57.0246ZM194.085 73.2845C195.417 73.2784 196.728 72.9469 197.904 72.3187C199.08 71.6905 200.085 70.7845 200.832 69.6795C200.777 67.4277 196.334 66.1883 194.085 66.1883C191.836 66.1883 187.392 67.4277 187.338 69.6795C188.086 70.7837 189.091 71.689 190.266 72.3172C191.442 72.9453 192.752 73.2773 194.085 73.2845Z" fill="#F9A826"/>
<path d="M184.248 139.364C183.936 139.685 183.649 140.03 183.391 140.397L143.26 139.413L138.578 130.848L124.743 136.232L131.56 152.203C132.111 153.493 133.065 154.569 134.279 155.271C135.492 155.972 136.9 156.26 138.292 156.092L183.634 150.608C184.703 151.963 186.16 152.961 187.809 153.468C189.459 153.974 191.223 153.966 192.868 153.444C194.513 152.922 195.96 151.911 197.017 150.546C198.074 149.18 198.691 147.525 198.786 145.8C198.88 144.075 198.448 142.362 197.546 140.889C196.645 139.416 195.316 138.253 193.738 137.554C192.16 136.855 190.407 136.654 188.712 136.977C187.017 137.3 185.461 138.132 184.249 139.362L184.248 139.364Z" fill="#FFB6B6"/>
<path d="M130.233 90.4524L111.452 84.2896L105.936 76.7153L79.0926 78.3058L75.1516 87.1446L60.838 93.9165L63.0378 134.819L66.8009 173.099C86.1517 163.066 122.265 170.715 122.581 170.84L130.233 90.4524Z" fill="#F9A826"/>
<path d="M126.218 145.817L145.321 138.164L145.24 137.824C145.158 137.48 137.027 103.462 135.948 97.9948C134.823 92.2995 130.714 90.7248 130.54 90.6608L130.413 90.6138L122.852 92.9178L119.532 119.039L126.218 145.817Z" fill="#F9A826"/>
<path d="M116.681 67.0441V47.3676C116.692 43.9051 116.022 40.4742 114.709 37.2709C113.397 34.0676 111.466 31.1545 109.029 28.698C106.592 26.2415 103.695 24.2898 100.505 22.9541C97.3143 21.6185 93.8922 20.9251 90.434 20.9137C86.9758 20.9022 83.5492 21.5728 80.3498 22.8873C77.1505 24.2017 74.241 26.1342 71.7876 28.5745C69.3342 31.0147 67.3848 33.9149 66.0509 37.1095C64.7169 40.304 64.0244 43.7304 64.0129 47.1929C64.0127 47.2511 64.0127 47.3094 64.0129 47.3676V67.0441C64.014 67.9831 64.387 68.8834 65.0502 69.5474C65.7134 70.2114 66.6125 70.5849 67.5504 70.586H113.143C114.081 70.5849 114.98 70.2114 115.643 69.5474C116.306 68.8834 116.679 67.9831 116.681 67.0441Z" fill="#2F2E41"/>
<path d="M95.758 70.1275C85.0951 70.1275 76.4511 61.4727 76.4511 50.7965C76.4511 40.1203 85.0951 31.4656 95.758 31.4656C106.421 31.4656 115.065 40.1203 115.065 50.7965C115.065 61.4727 106.421 70.1275 95.758 70.1275Z" fill="#FFB6B6"/>
<path d="M122.911 48.9418C122.904 43.412 120.708 38.1105 116.802 34.2003C112.897 30.2902 107.602 28.0908 102.079 28.0845H98.1487C92.6258 28.0908 87.3309 30.2902 83.4257 34.2004C79.5204 38.1105 77.3238 43.412 77.3176 48.9418V49.3352H85.6241L88.4572 41.3912L89.0238 49.3352H93.3163L94.7455 45.3277L95.032 49.3352H122.911V48.9418Z" fill="#2F2E41"/>
<path d="M97.6583 72.7987C98.0482 72.27 98.2811 71.6418 98.3301 70.9863C98.3791 70.3309 98.2422 69.675 97.9352 69.094C93.7702 61.162 87.9388 46.5051 95.679 37.4662L96.2341 36.8174H73.7619V70.5982L94.1761 74.2046C94.3827 74.2412 94.5922 74.2597 94.802 74.2599C95.3593 74.2599 95.9086 74.1276 96.4049 73.8737C96.9012 73.6198 97.3303 73.2517 97.6568 72.7996L97.6583 72.7987Z" fill="#2F2E41"/>
<path d="M62.0927 184.279C67.6039 186.298 73.2927 187.793 79.0839 188.744C95.0159 191.36 111.351 189.875 126.551 184.428L122.186 166.891L121.923 165.838L113.015 165.873L68.2624 166.033L67.6896 167.728L62.0927 184.279Z" fill="#2F2E41"/>
<path d="M84.9703 171.416C84.5225 171.406 84.0745 171.43 83.6306 171.49L57.065 141.357L60.155 132.098L46.805 125.601L39.743 141.464C39.1725 142.746 39.0325 144.178 39.3442 145.546C39.6558 146.914 40.4022 148.144 41.4714 149.051L76.3157 178.611C76.0503 180.318 76.3101 182.066 77.0608 183.621C77.8114 185.177 79.0172 186.466 80.5179 187.319C82.0185 188.172 83.7429 188.547 85.4616 188.394C87.1803 188.242 88.8119 187.569 90.1394 186.465C91.4669 185.362 92.4274 183.88 92.8931 182.216C93.3588 180.553 93.3077 178.787 92.7466 177.153C92.1855 175.519 91.1409 174.096 89.7518 173.071C88.3627 172.046 86.6949 171.469 84.9703 171.416Z" fill="#FFB6B6"/>
<path d="M59.1853 144.29L70.2671 118.191L65.9448 100.011L61.2877 94.12C60.9467 93.974 60.579 93.9004 60.2081 93.9039C59.8371 93.9073 59.471 93.9878 59.1326 94.1401C57.4141 94.8321 55.9532 96.9535 54.7855 100.445L44.3997 130.064L59.1853 144.29Z" fill="#F9A826"/>
</svg>
