<svg width="211" height="197" viewBox="0 0 211 197" fill="none" xmlns="http://www.w3.org/2000/svg">
<path d="M99.4758 1.6438L93.0192 5.16677L13.473 48.5706L7.0164 52.0935C3.88347 53.8076 1.55835 56.6944 0.551139 60.1207C-0.456067 63.547 -0.0631051 67.2329 1.64382 70.3698L60.8801 178.94C62.594 182.073 65.4808 184.399 68.9069 185.406C72.333 186.413 76.0188 186.02 79.1556 184.313L79.1723 184.304L171.598 133.872L171.615 133.863C174.748 132.149 177.073 129.263 178.08 125.836C179.087 122.41 178.694 118.724 176.988 115.587L117.751 7.01663C116.037 3.88358 113.151 1.55836 109.725 0.551108C106.298 -0.456145 102.613 -0.0631762 99.4758 1.6438Z" fill="#F2F2F2"/>
<path d="M101.333 5.04751L93.6855 9.22022L16.5206 51.3246L8.87335 55.4973C6.64231 56.7179 4.98653 58.7737 4.26927 61.2136C3.55201 63.6535 3.83185 66.2784 5.04739 68.5122L64.2836 177.083C65.5042 179.314 67.5599 180.97 69.9997 181.687C72.4396 182.404 75.0643 182.124 77.298 180.909L77.3147 180.9L169.741 130.468L169.758 130.459C171.989 129.238 173.644 127.183 174.362 124.743C175.079 122.303 174.799 119.678 173.583 117.444L114.347 8.87366C113.127 6.64256 111.071 4.98672 108.631 4.26942C106.191 3.55212 103.567 3.83195 101.333 5.04751Z" fill="white"/>
<path d="M102.608 38.7478L68.1365 57.5568C67.6143 57.8418 67.0003 57.9076 66.4295 57.7398C65.8588 57.572 65.3781 57.1844 65.0931 56.6621C64.8082 56.1399 64.7424 55.5259 64.9102 54.9551C65.0779 54.3843 65.4656 53.9036 65.9878 53.6187L100.459 34.8096C100.981 34.5247 101.595 34.4589 102.166 34.6267C102.737 34.7944 103.218 35.1821 103.503 35.7043C103.787 36.2266 103.853 36.8406 103.686 37.4114C103.518 37.9821 103.13 38.4629 102.608 38.7478Z" fill="#F2F2F2"/>
<path d="M114.356 40.9617L71.7622 64.2025C71.24 64.4875 70.626 64.5533 70.0552 64.3855C69.4845 64.2177 69.0038 63.8301 68.7189 63.3078C68.4339 62.7856 68.3681 62.1715 68.5359 61.6008C68.7037 61.03 69.0913 60.5493 69.6135 60.2643L112.207 37.0235C112.466 36.8824 112.75 36.7936 113.042 36.7622C113.335 36.7308 113.632 36.7574 113.914 36.8405C114.197 36.9236 114.46 37.0615 114.689 37.2464C114.919 37.4313 115.109 37.6596 115.25 37.9182C115.392 38.1768 115.48 38.4606 115.512 38.7535C115.543 39.0464 115.517 39.3426 115.433 39.6252C115.35 39.9079 115.212 40.1713 115.028 40.4006C114.843 40.63 114.614 40.8206 114.356 40.9617Z" fill="#F2F2F2"/>
<path d="M53.965 49.7273L22.1844 67.0682C21.9342 67.2048 21.7485 67.4351 21.6682 67.7086C21.5878 67.982 21.6193 68.2762 21.7557 68.5265L35.2887 93.3303C35.4253 93.5805 35.6556 93.7662 35.9291 93.8466C36.2025 93.927 36.4967 93.8955 36.7469 93.759L68.5276 76.4182C68.7777 76.2816 68.9634 76.0512 69.0438 75.7778C69.1242 75.5043 69.0927 75.2101 68.9562 74.9599L55.4232 50.1561C55.2867 49.9059 55.0563 49.7202 54.7829 49.6398C54.5094 49.5594 54.2152 49.5909 53.965 49.7273Z" fill="#F2F2F2"/>
<path d="M119.712 70.2199L72.9556 95.732C72.697 95.873 72.4132 95.9618 72.1203 95.9932C71.8274 96.0246 71.5312 95.998 71.2486 95.9149C70.966 95.8318 70.7025 95.6939 70.4732 95.509C70.2439 95.3241 70.0533 95.0958 69.9122 94.8372C69.7711 94.5787 69.6824 94.2948 69.651 94.0019C69.6196 93.709 69.6462 93.4128 69.7292 93.1302C69.8123 92.8476 69.9503 92.5841 70.1352 92.3548C70.3201 92.1255 70.5483 91.9348 70.8069 91.7938L117.563 66.2817C118.085 65.9967 118.699 65.9309 119.27 66.0987C119.841 66.2665 120.321 66.6541 120.606 67.1764C120.891 67.6986 120.957 68.3127 120.789 68.8834C120.622 69.4542 120.234 69.9349 119.712 70.2199Z" fill="#F2F2F2"/>
<path d="M131.46 72.4337L76.5816 102.378C76.0593 102.663 75.4453 102.728 74.8746 102.561C74.3038 102.393 73.8231 102.005 73.5382 101.483C73.2533 100.961 73.1874 100.347 73.3552 99.7759C73.523 99.2051 73.9107 98.7244 74.4329 98.4395L129.311 68.4955C129.833 68.2106 130.447 68.1448 131.018 68.3126C131.589 68.4804 132.07 68.868 132.355 69.3902C132.64 69.9125 132.705 70.5265 132.538 71.0973C132.37 71.6681 131.982 72.1488 131.46 72.4337Z" fill="#F2F2F2"/>
<path d="M55.1485 116.626C60.4041 116.626 64.6647 112.365 64.6647 107.109C64.6647 101.853 60.4041 97.5925 55.1485 97.5925C49.8929 97.5925 45.6323 101.853 45.6323 107.109C45.6323 112.365 49.8929 116.626 55.1485 116.626Z" fill="#F2F2F2"/>
<path d="M197.53 46.3797H92.2037C88.6326 46.3837 85.2089 47.8042 82.6837 50.3295C80.1585 52.8547 78.7381 56.2786 78.7341 59.8498V183.53C78.7381 187.101 80.1585 190.525 82.6837 193.05C85.2089 195.576 88.6326 196.996 92.2037 197H197.53C201.102 196.996 204.525 195.576 207.05 193.05C209.576 190.525 210.996 187.101 211 183.53V59.8498C210.996 56.2786 209.576 52.8547 207.05 50.3295C204.525 47.8042 201.102 46.3837 197.53 46.3797Z" fill="#E6E6E6"/>
<path d="M197.53 50.2574H92.2036C89.6605 50.2603 87.2224 51.2718 85.4242 53.0701C83.6259 54.8684 82.6144 57.3066 82.6116 59.8498V183.53C82.6144 186.073 83.6259 188.511 85.4242 190.31C87.2224 192.108 89.6605 193.119 92.2036 193.122H197.53C200.074 193.119 202.512 192.108 204.31 190.31C206.108 188.511 207.119 186.073 207.122 183.53V59.8498C207.119 57.3066 206.108 54.8685 204.31 53.0702C202.512 51.2719 200.074 50.2603 197.53 50.2574Z" fill="white"/>
<path d="M182.509 80.4515H143.24C142.645 80.4515 142.075 80.2151 141.654 79.7945C141.234 79.3738 140.997 78.8033 140.997 78.2083C140.997 77.6134 141.234 77.0429 141.654 76.6222C142.075 76.2015 142.645 75.9652 143.24 75.9652H182.509C182.804 75.9649 183.096 76.0227 183.368 76.1352C183.641 76.2478 183.888 76.413 184.097 76.6213C184.305 76.8297 184.471 77.077 184.584 77.3494C184.696 77.6217 184.755 77.9136 184.755 78.2083C184.755 78.5031 184.696 78.795 184.584 79.0673C184.471 79.3396 184.305 79.587 184.097 79.7954C183.888 80.0037 183.641 80.1689 183.368 80.2814C183.096 80.394 182.804 80.4518 182.509 80.4515Z" fill="#F9A826"/>
<path d="M191.762 88.022H143.24C142.645 88.022 142.075 87.7857 141.654 87.365C141.234 86.9444 140.997 86.3738 140.997 85.7789C140.997 85.184 141.234 84.6134 141.654 84.1928C142.075 83.7721 142.645 83.5358 143.24 83.5358H191.762C192.357 83.5358 192.927 83.7721 193.348 84.1928C193.768 84.6134 194.005 85.184 194.005 85.7789C194.005 86.3738 193.768 86.9444 193.348 87.365C192.927 87.7857 192.357 88.022 191.762 88.022Z" fill="#F9A826"/>
<path d="M134.55 66.7906H98.3467C98.0617 66.7907 97.7883 66.9039 97.5868 67.1055C97.3853 67.307 97.272 67.5804 97.272 67.8654V96.1211C97.272 96.4061 97.3853 96.6795 97.5868 96.881C97.7883 97.0826 98.0617 97.1958 98.3467 97.1959H134.55C134.835 97.1958 135.109 97.0826 135.31 96.881C135.512 96.6795 135.625 96.4061 135.625 96.1211V67.8654C135.625 67.5804 135.512 67.307 135.31 67.1055C135.108 66.9039 134.835 66.7907 134.55 66.7906Z" fill="#E6E6E6"/>
<path d="M108.278 84.1416C108.292 86.5269 107.413 88.8313 105.813 90.6005C104.23 92.3379 101.874 93.4901 99.4954 93.0133C97.3055 92.5744 95.526 90.6603 95.748 88.3448C95.7848 87.8432 95.9306 87.3558 96.1751 86.9163C96.4197 86.4769 96.7571 86.0961 97.1639 85.8004C97.5707 85.5048 98.0371 85.3014 98.5305 85.2045C99.024 85.1076 99.5326 85.1195 100.021 85.2393C102.101 85.7792 102.93 88.7775 101.197 90.1848C100.781 90.5225 100.183 89.9319 100.603 89.591C101.749 88.6607 101.395 86.6254 100.012 86.115C98.4013 85.5207 96.6951 86.7988 96.5793 88.4453C96.442 90.3974 97.9373 91.8674 99.7712 92.2136C101.755 92.588 103.722 91.5726 105.066 90.1711C106.607 88.5436 107.457 86.3825 107.438 84.1416C107.442 84.0327 107.488 83.9296 107.566 83.854C107.644 83.7783 107.749 83.736 107.858 83.736C107.967 83.736 108.071 83.7783 108.15 83.854C108.228 83.9296 108.274 84.0327 108.278 84.1416Z" fill="#2F2E41"/>
<path d="M116.477 89.4796C124.75 89.4796 131.456 82.7728 131.456 74.4997C131.456 66.2265 124.75 59.5198 116.477 59.5198C108.204 59.5198 101.497 66.2265 101.497 74.4997C101.497 82.7728 108.204 89.4796 116.477 89.4796Z" fill="#F9A826"/>
<path d="M108.179 97.1959C109.302 96.4834 110.515 95.9252 111.787 95.5361C111.666 95.1048 111.668 94.6481 111.793 94.2178C111.961 93.6742 112.301 93.1998 112.762 92.8653C113.222 92.5309 113.779 92.3543 114.348 92.3621H117.998C118.568 92.3548 119.125 92.5317 119.586 92.8666C120.048 93.2015 120.389 93.6763 120.559 94.2206C120.684 94.6499 120.686 95.1057 120.564 95.5361C121.836 95.9257 123.049 96.4839 124.172 97.1959H108.179Z" fill="#2F2E41"/>
<path d="M133.635 68.9402C133.362 68.6097 133.026 68.3366 132.647 68.1369C132.314 67.9632 131.945 67.872 131.569 67.871C131.054 67.8773 130.554 68.0457 130.139 68.3524C129 69.1585 128.211 70.8967 128.211 72.9091C128.211 75.4338 129.453 77.5274 131.068 77.8913C131.233 77.9282 131.401 77.947 131.569 77.9473C133.419 77.9473 134.928 75.6885 134.928 72.9091C134.928 71.2969 134.421 69.8611 133.635 68.9402Z" fill="#3F3D56"/>
<path d="M102.87 68.232H102.867C102.493 67.9997 102.062 67.8748 101.621 67.871C101.246 67.872 100.876 67.9632 100.544 68.1369C100.165 68.3366 99.8287 68.6097 99.5558 68.9402L99.5529 68.943C98.7693 69.8638 98.2627 71.2997 98.2627 72.9091C98.2627 75.0811 99.1807 76.9341 100.468 77.6422C100.821 77.8397 101.217 77.9447 101.621 77.9473C101.711 77.9473 101.801 77.9417 101.89 77.9305H101.893C103.617 77.7234 104.98 75.5514 104.98 72.9091C104.98 70.7931 104.104 68.9766 102.87 68.232Z" fill="#3F3D56"/>
<path d="M100.678 77.1606C100.745 77.1605 100.81 77.1446 100.87 77.1141C100.929 77.0837 100.98 77.0396 101.019 76.9854C101.058 76.9313 101.083 76.8687 101.093 76.8028C101.103 76.7369 101.097 76.6695 101.076 76.6064C100.274 74.2202 100.032 71.6811 100.371 69.1865C100.709 66.6918 101.618 64.3088 103.027 62.2227C104.436 60.1365 106.307 58.4033 108.495 57.1579C110.683 55.9125 113.128 55.1883 115.641 55.0417C118.155 54.895 120.668 55.3299 122.985 56.3124C125.303 57.295 127.363 58.7988 129.005 60.7069C130.647 62.6151 131.827 64.8762 132.453 67.3145C133.08 69.7529 133.135 72.3028 132.616 74.7661C132.593 74.8751 132.614 74.9887 132.675 75.082C132.736 75.1753 132.831 75.2406 132.94 75.2636C133.049 75.2866 133.162 75.2653 133.256 75.2045C133.349 75.1437 133.414 75.0484 133.437 74.9394C133.984 72.3495 133.926 69.6685 133.268 67.1048C132.609 64.541 131.369 62.1635 129.643 60.1572C127.916 58.1509 125.75 56.5697 123.313 55.5366C120.877 54.5035 118.234 54.0463 115.592 54.2005C112.95 54.3547 110.378 55.1163 108.078 56.4259C105.778 57.7355 103.811 59.5579 102.33 61.7515C100.848 63.945 99.893 66.4506 99.5375 69.0736C99.1821 71.6965 99.4363 74.3661 100.28 76.8748C100.308 76.958 100.362 77.0304 100.433 77.0817C100.505 77.1329 100.59 77.1605 100.678 77.1606Z" fill="#3F3D56"/>
<path d="M182.45 116.271H129.187C128.892 116.271 128.601 116.213 128.329 116.1C128.056 115.988 127.809 115.822 127.601 115.614C127.393 115.406 127.227 115.159 127.115 114.886C127.002 114.614 126.944 114.323 126.944 114.028C126.944 113.733 127.002 113.442 127.115 113.17C127.227 112.897 127.393 112.65 127.601 112.442C127.809 112.234 128.056 112.068 128.329 111.956C128.601 111.843 128.892 111.785 129.187 111.785H182.45C183.044 111.786 183.614 112.022 184.034 112.443C184.455 112.863 184.69 113.434 184.69 114.028C184.69 114.623 184.455 115.193 184.034 115.613C183.614 116.034 183.044 116.271 182.45 116.271Z" fill="#E6E6E6"/>
<path d="M191.703 123.842H129.187C128.892 123.842 128.6 123.784 128.328 123.672C128.055 123.559 127.808 123.394 127.599 123.186C127.391 122.977 127.225 122.73 127.112 122.458C127 122.185 126.941 121.893 126.941 121.599C126.941 121.304 127 121.012 127.112 120.74C127.225 120.467 127.391 120.22 127.599 120.012C127.808 119.803 128.055 119.638 128.328 119.525C128.6 119.413 128.892 119.355 129.187 119.355H191.703C191.997 119.355 192.289 119.413 192.562 119.525C192.834 119.638 193.082 119.803 193.29 120.012C193.499 120.22 193.664 120.467 193.777 120.74C193.89 121.012 193.948 121.304 193.948 121.599C193.948 121.893 193.89 122.185 193.777 122.458C193.664 122.73 193.499 122.977 193.29 123.186C193.082 123.394 192.834 123.559 192.562 123.672C192.289 123.784 191.997 123.842 191.703 123.842Z" fill="#E6E6E6"/>
<path d="M182.45 143.481H129.187C128.592 143.481 128.021 143.245 127.601 142.824C127.18 142.403 126.944 141.833 126.944 141.238C126.944 140.643 127.18 140.072 127.601 139.652C128.021 139.231 128.592 138.995 129.187 138.995H182.45C183.045 138.995 183.615 139.231 184.036 139.652C184.457 140.072 184.693 140.643 184.693 141.238C184.693 141.833 184.457 142.403 184.036 142.824C183.615 143.245 183.045 143.481 182.45 143.481Z" fill="#E6E6E6"/>
<path d="M191.703 151.052H129.187C128.592 151.052 128.021 150.815 127.601 150.395C127.18 149.974 126.944 149.403 126.944 148.808C126.944 148.214 127.18 147.643 127.601 147.222C128.021 146.802 128.592 146.565 129.187 146.565H191.703C192.297 146.565 192.868 146.802 193.289 147.222C193.709 147.643 193.946 148.214 193.946 148.808C193.946 149.403 193.709 149.974 193.289 150.395C192.868 150.815 192.297 151.052 191.703 151.052Z" fill="#E6E6E6"/>
<path d="M108.107 127.246C113.362 127.246 117.623 122.985 117.623 117.729C117.623 112.473 113.362 108.213 108.107 108.213C102.851 108.213 98.5903 112.473 98.5903 117.729C98.5903 122.985 102.851 127.246 108.107 127.246Z" fill="#E6E6E6"/>
<path d="M108.107 154.676C113.362 154.676 117.623 150.415 117.623 145.159C117.623 139.903 113.362 135.643 108.107 135.643C102.851 135.643 98.5903 139.903 98.5903 145.159C98.5903 150.415 102.851 154.676 108.107 154.676Z" fill="#E6E6E6"/>
<path d="M182.45 170.911H129.187C128.592 170.911 128.021 170.675 127.601 170.254C127.18 169.833 126.944 169.263 126.944 168.668C126.944 168.073 127.18 167.502 127.601 167.082C128.021 166.661 128.592 166.425 129.187 166.425H182.45C183.045 166.425 183.615 166.661 184.036 167.082C184.457 167.502 184.693 168.073 184.693 168.668C184.693 169.263 184.457 169.833 184.036 170.254C183.615 170.675 183.045 170.911 182.45 170.911Z" fill="#E6E6E6"/>
<path d="M191.703 178.482H129.187C128.592 178.482 128.021 178.245 127.601 177.825C127.18 177.404 126.944 176.833 126.944 176.238C126.944 175.644 127.18 175.073 127.601 174.652C128.021 174.232 128.592 173.995 129.187 173.995H191.703C192.297 173.995 192.868 174.232 193.289 174.652C193.709 175.073 193.946 175.644 193.946 176.238C193.946 176.833 193.709 177.404 193.289 177.825C192.868 178.245 192.297 178.482 191.703 178.482Z" fill="#E6E6E6"/>
<path d="M108.107 182.106C113.362 182.106 117.623 177.845 117.623 172.589C117.623 167.333 113.362 163.073 108.107 163.073C102.851 163.073 98.5903 167.333 98.5903 172.589C98.5903 177.845 102.851 182.106 108.107 182.106Z" fill="#E6E6E6"/>
</svg>
