<svg width="324" height="166" viewBox="0 0 324 166" fill="none" xmlns="http://www.w3.org/2000/svg">
<path d="M309.619 91.7739L308.604 99.8748L306.085 119.996H255.481C255.876 115.486 256.416 108.995 256.993 101.987C257.05 101.288 257.11 100.583 257.167 99.8748C258.614 82.2603 260.197 62.3276 260.197 62.3276L266.85 63.5699L279.758 65.9757L285.017 66.9554L299.102 69.5843C306.124 70.8921 310.955 81.0837 309.619 91.7739Z" fill="#F2F2F2"/>
<path d="M271.341 29.7322L277.564 40.6475L265.604 49.1437L260.501 35.7267L271.341 29.7322Z" fill="#FFB6B6"/>
<path d="M263.419 40.0586C271.933 40.0586 278.835 33.1402 278.835 24.606C278.835 16.0718 271.933 9.1535 263.419 9.1535C254.905 9.1535 248.003 16.0718 248.003 24.606C248.003 33.1402 254.905 40.0586 263.419 40.0586Z" fill="#FFB6B6"/>
<path d="M262.312 28.0605C261.088 26.1931 261.568 25.2164 260.544 24.5302C260.544 24.5301 260.131 24.254 257.18 24.0965C256.519 19.3294 255.694 18.7513 255.694 18.7513C254.743 18.085 253.332 18.3015 252.455 18.709C250.598 19.5709 250.814 21.4326 249.564 21.7888C247.837 22.281 244.695 19.5066 244.386 16.3304C244.133 13.7396 245.799 11.2233 246.459 11.3564C247.114 11.4884 248.682 9.48197 249.529 9.51292C250.107 9.53405 252.469 8.50488 253.105 8.58535C253.799 8.67323 256.087 9.87015 256.182 9.59669C256.845 7.69641 256.65 7.16916 257.212 6.62553C258.209 5.66222 259.838 6.33304 262.395 6.69318C267.656 7.43417 268.574 5.69547 271.27 6.87397C272.632 7.46929 273.772 9.0748 275.995 12.2615C279.105 16.7181 280.66 18.9464 280.67 21.5454C280.68 24.1959 279.399 24.0276 278.837 27.9515C278.211 32.3194 279.541 34.3166 278.088 35.7356C276.965 36.8324 274.682 37.0927 273.482 36.1302C271.428 34.4822 274.116 30.5057 271.843 27.6004C270.448 25.817 267.643 25.0235 266.358 25.905C264.904 26.9018 265.705 29.8275 264.683 30.1049C263.808 30.3425 262.525 28.3859 262.312 28.0605Z" fill="#2F2E41"/>
<path d="M298.224 88.921C297.794 96.2906 296.086 98.6172 295.488 107.321C295.357 109.231 295.278 111.449 295.278 114.094C295.278 114.769 295.282 115.421 295.282 116.058C295.282 117.414 295.256 118.695 295.099 119.995C294.98 121.033 294.774 122.079 294.434 123.18H261.231C261.227 123.172 261.227 123.165 261.223 123.157C261.029 122.311 260.905 121.502 260.812 120.726C260.782 120.479 260.756 120.235 260.733 119.995C260.703 119.714 260.677 119.437 260.651 119.164C260.55 118.073 260.449 117.043 260.21 116.058C259.889 114.698 259.305 113.416 258.109 112.18C257.62 111.674 257.13 111.281 256.652 110.936C256.558 110.872 256.468 110.809 256.375 110.745C255.052 109.835 253.8 109.179 252.716 107.321C252.697 107.294 252.682 107.264 252.667 107.238C252.48 106.912 251.994 106.058 251.643 104.919C251.273 103.735 251.049 102.248 251.452 100.727C252.413 97.1224 255.971 96.7628 258.879 93.121C259.193 92.7277 259.504 92.293 259.799 91.8097C261.114 89.6665 261.47 87.7784 261.888 85.5341C261.955 85.1706 262.015 84.8109 262.064 84.4626C262.101 84.2003 262.135 83.9418 262.161 83.687C262.393 81.5477 262.281 79.7044 262.008 78.0559C261.118 72.657 258.494 69.315 260.348 64.4706C260.932 62.9496 261.758 61.8068 262.591 60.829C264.355 58.757 266.168 57.412 265.854 54.7371C265.536 52.0395 263.495 51.6685 263.268 49.3118C263.152 48.1205 263.54 46.8654 264.269 45.6327V45.6291C266.602 41.6613 272.425 38.0084 276.126 38.1245C276.81 38.1434 277.415 38.2969 277.92 38.5929C279.748 39.6718 278.985 42.0285 281.785 45.3331C283.867 47.787 286.222 48.7687 287.115 49.2332C290.655 51.0842 293.533 56.5429 295.488 63.5228C295.503 63.5753 295.518 63.6276 295.533 63.684C296.74 68.0562 297.592 73.0205 298.015 78.0559C298.194 80.1877 298.299 82.3308 298.321 84.4513C298.34 86.1448 298.302 87.6136 298.224 88.921Z" fill="#F9A826"/>
<path d="M273.36 114.169L272.683 116.058L272.257 117.242L271.27 119.995L270.127 123.18H262.774L264.008 119.995L264.58 118.512L265.529 116.058L267.121 111.937L273.36 114.169Z" fill="#FFB6B6"/>
<path d="M295.604 62.8783C295.585 63.122 295.559 63.3916 295.533 63.684C295.241 66.6587 294.553 71.9827 293.548 78.0559C293.017 81.2592 292.397 84.6725 291.698 88.0631C290.195 95.3801 288.326 102.585 286.214 107.321C285.837 108.175 285.448 108.947 285.052 109.629C284.749 110.149 284.431 110.663 284.099 111.168C283.022 112.828 281.815 114.402 280.563 115.87C280.514 115.934 280.458 115.994 280.402 116.058C280.2 116.297 279.991 116.534 279.781 116.77C278.757 117.927 277.711 119.006 276.698 119.995C275.464 121.202 274.275 122.27 273.21 123.18H261.271L261.223 123.157L259.504 122.393C259.504 122.393 259.993 121.816 260.812 120.726C260.98 120.505 261.159 120.261 261.354 119.995C261.593 119.669 261.851 119.31 262.127 118.92C262.703 118.103 263.357 117.144 264.06 116.058C265.421 113.956 266.972 111.371 268.538 108.377C268.718 108.029 268.9 107.677 269.084 107.321C269.087 107.309 269.095 107.298 269.099 107.287C269.409 106.68 269.716 106.054 270.022 105.417C272.62 99.9997 273.364 95.5038 273.577 94.0465C273.876 91.9858 274.29 89.1045 274.178 85.9349C274.104 83.8445 273.801 81.6338 273.08 79.4384V79.4347C272.93 78.9739 272.762 78.5131 272.571 78.0559C272.231 77.2354 271.827 76.4261 271.349 75.6281C269.237 72.1138 267.521 71.9677 266.157 68.1385C265.753 67.0034 264.837 64.4408 265.118 61.7357V61.732C265.152 61.3985 265.208 61.0613 265.282 60.724V60.7203C265.301 60.6267 265.327 60.5293 265.354 60.4357C265.566 59.6077 265.918 58.787 266.452 58.0077C267.495 56.4942 268.919 55.5949 270.194 55.0593L270.198 55.0554C271.67 54.4411 272.941 54.3099 273.188 54.2874C278.649 53.8005 282.884 58.4012 285.198 60.9152C286.091 61.8855 286.91 62.6986 287.657 63.3616C293.477 68.5695 295.073 65.2424 295.488 63.5228C295.551 63.2568 295.585 63.0283 295.604 62.8783Z" fill="#F9A826"/>
<path d="M295.622 62.6837C295.622 62.7023 295.619 62.766 295.604 62.871C295.611 62.8146 295.615 62.7585 295.619 62.706C295.619 62.6948 295.619 62.6873 295.622 62.6837Z" fill="#F9A826"/>
<path d="M265.936 141.741H65.5695C63.7078 141.741 62.1904 143.258 62.1904 145.124C62.1904 146.993 63.7078 148.511 65.5695 148.511H265.936C267.798 148.511 269.312 146.993 269.312 145.124C269.312 143.258 267.798 141.741 265.936 141.741Z" fill="#E6E6E6"/>
<path d="M221.471 159.23H110.031C108.17 159.23 106.656 160.747 106.656 162.613C106.656 164.479 108.17 166 110.031 166H221.471C223.333 166 224.85 164.479 224.85 162.613C224.85 160.747 223.333 159.23 221.471 159.23Z" fill="#E6E6E6"/>
<path d="M87.8652 30.4505L100.493 25.1237L105.909 36.2531L92.6394 41.6821L87.8652 30.4505Z" fill="#FFB6B6"/>
<path opacity="0.1" d="M87.8652 30.4505L100.493 25.1237L105.909 36.2531L92.6394 41.6821L87.8652 30.4505Z" fill="black"/>
<path d="M89.6605 26.2095L102.118 40.5963C102.118 40.5963 93.452 68.0128 84.7859 70.4559C76.1198 72.8989 60.1417 84.8427 60.1417 84.8427L40.1013 71.8131L49.8507 57.4262C49.8507 57.4262 73.4116 25.1237 79.6404 25.1237C85.8691 25.1237 89.6605 26.2095 89.6605 26.2095Z" fill="#F9A826"/>
<path d="M72.8291 119.996H43.8302L41.9968 117.539L34.5115 107.509L32.7891 105.201C32.7891 105.201 26.2895 93.2577 27.6436 82.3996C28.9977 71.5416 43.0801 69.0986 43.0801 69.0986H43.6596L60.8997 84.2835L59.8706 98.4152L65.3303 107.509L72.8291 119.996Z" fill="#2F2E41"/>
<path d="M49.7692 119.996H41.9968V108.459L49.7692 119.996Z" fill="#2F2E41"/>
<path d="M217.409 102.482L216.443 107.509L214.043 119.996H165.841C166.217 117.197 166.732 113.169 167.282 108.82C167.336 108.386 167.393 107.949 167.447 107.509C168.825 96.5775 170.334 84.2075 170.334 84.2075L176.671 84.9785L188.966 86.4714L193.976 87.0795L207.392 88.7109C214.081 89.5225 218.682 95.8473 217.409 102.482Z" fill="#F2F2F2"/>
<path d="M285.625 119.996H259.481C259.879 119.526 260.104 119.254 260.104 119.254L267.941 117.957L284.09 115.286C284.09 115.286 284.826 117.194 285.625 119.996Z" fill="#2F2E41"/>
<path d="M174.727 35.8799L186.097 51.997L166.264 52.5907L164.135 37.4444L174.727 35.8799Z" fill="#A0616A"/>
<path opacity="0.1" d="M174.727 35.8799L186.097 51.997L166.264 52.5907L164.135 37.4444L174.727 35.8799Z" fill="black"/>
<path d="M118.656 69.2734C117.198 65.0551 113.844 62.3902 111.165 63.3213C108.487 64.2524 107.499 68.4262 108.959 72.6459C109.52 74.3395 110.476 75.874 111.749 77.121L118.156 94.9161L126.423 91.7247L119.229 74.5207C119.459 72.7508 119.263 70.9515 118.656 69.2734Z" fill="#A0616A"/>
<path d="M195.619 61.061L195.603 77.4864L194.079 83.5533L190.943 96.0319L188.66 107.509L186.959 116.06L186.352 119.113C185.895 119.42 185.44 119.713 184.985 119.996H145.373C143.122 118.641 141.863 117.588 141.863 117.588C141.863 117.588 142.486 117.001 143.198 116.06C144.4 114.469 145.855 111.863 144.964 109.374C144.777 108.853 144.728 108.217 144.785 107.509C145.148 102.834 150.039 94.9298 150.039 94.9298L149.026 83.1977L148.582 78.0565L151.713 52.9879L161.92 47.0404L163.682 46.8695L181.077 45.9276L188.266 46.3429L188.594 46.4325L195.619 61.061Z" fill="#CCCCCC"/>
<path d="M196.391 119.996H187.725L187.343 116.059L187.335 115.981L189.789 115.812L196.172 115.375L196.283 117.732L196.37 119.54L196.391 119.996Z" fill="#FFB6B6"/>
<path d="M198.525 65.0322L202.165 86.4415L199.194 107.509L198.731 110.788L197.913 116.578L197.662 118.359L197.67 118.551L197.732 119.995H187.441L187.062 116.059L187.029 115.707L186.255 107.645L186.241 107.509L184.597 90.4128L187.82 78.0564L188.058 77.147V77.1443L189.461 55.9875L188.375 46.3727L188.364 46.2831C188.385 46.2967 188.404 46.3103 188.426 46.3239C188.483 46.3592 188.54 46.3944 188.594 46.4325C194.92 50.4554 198.69 57.5131 198.525 65.0322Z" fill="#CCCCCC"/>
<path d="M155.4 57.0903L151.443 52.9875C151.443 52.9875 142.971 56.8157 142.549 58.9395C142.127 61.0633 127.169 92.2564 127.169 92.2564L120.661 74.8351L112.191 80.5039C112.191 80.5039 118.988 107.551 125.344 108.821C131.701 110.091 153.005 76.8078 153.005 76.8078L155.4 57.0903Z" fill="#CCCCCC"/>
<path d="M316.087 107.321H7.90934C3.5473 107.321 0 110.88 0 115.252C0 119.624 3.5473 123.18 7.90934 123.18H316.087C320.449 123.18 324 119.625 324 115.252C324 110.88 320.449 107.321 316.087 107.321Z" fill="#E6E6E6"/>
<path d="M193.815 83.1521L193.216 111.178C193.158 113.891 190.947 116.06 188.24 116.06H136.807C134.163 116.06 131.981 113.989 131.837 111.343L130.308 83.3175C130.152 80.4596 132.422 78.0565 135.278 78.0565H188.839C191.63 78.0565 193.875 80.3557 193.815 83.1521Z" fill="#3F3D56"/>
<path d="M110.784 37.2155C117.58 37.2155 123.09 31.6932 123.09 24.881C123.09 18.0689 117.58 12.5465 110.784 12.5465C103.988 12.5465 98.4783 18.0689 98.4783 24.881C98.4783 31.6932 103.988 37.2155 110.784 37.2155Z" fill="#FFB6B6"/>
<path d="M90.2021 57.1548L91.5561 71.8131L100.764 109.002L92.809 111.796L79.3694 71.2702L77.5132 54.9832L90.2021 57.1548Z" fill="#FFB6B6"/>
<path d="M86.5394 83.1521L85.9403 111.178C85.8823 113.891 83.6716 116.06 80.9643 116.06H29.5307C26.8875 116.06 24.7053 113.989 24.561 111.343L23.0325 83.3175C22.8766 80.4596 25.1466 78.0565 28.0021 78.0565H81.5635C84.354 78.0565 86.5992 80.3557 86.5394 83.1521Z" fill="#3F3D56"/>
<path d="M102.23 116.249C107.597 116.249 111.949 114.32 111.949 111.94C111.949 109.561 107.597 107.632 102.23 107.632C96.8628 107.632 92.5117 109.561 92.5117 111.94C92.5117 114.32 96.8628 116.249 102.23 116.249Z" fill="#FFB6B6"/>
<path d="M71.1096 59.3959L76.6613 29.7383C76.6613 29.7383 92.0978 27.5667 92.6394 32.7243C93.1811 37.8818 92.2524 63.0875 92.2524 63.0875L71.1096 59.3959Z" fill="#F9A826"/>
<path d="M105.817 26.8204C105.817 26.8204 113.429 24.0973 116.64 22.6321C119.851 21.1669 126.23 31.3865 126.372 25.9892C126.514 20.5918 124.31 18.3284 124.31 18.3284C124.31 18.3284 123.759 6.52098 111.891 7.99719C111.891 7.99719 114.502 2.08979 105.933 1.17631C97.3641 0.262843 84.0331 21.0037 85.227 24.1033C86.4209 27.2029 87.8521 29.7655 84.4649 33.0797C81.0777 36.3939 74.7352 55.0982 79.5609 60.1314C84.3866 65.1646 84.7032 67.3487 81.3969 70.48C78.0905 73.6113 70.2752 80.4198 78.7253 81.6018C87.1755 82.7838 77.9523 81.901 84.252 76.3467C90.5517 70.7924 99.7444 71.0193 96.312 62.1079C92.8796 53.1965 98.8429 40.4266 98.0967 38.4893C97.3505 36.5521 99.7685 24.2504 99.7685 24.2504C99.7685 24.2504 105.396 23.4217 105.817 26.8204Z" fill="#2F2E41"/>
<path d="M168.648 41.7134C176.046 41.7134 182.044 35.702 182.044 28.2864C182.044 20.8709 176.046 14.8594 168.648 14.8594C161.25 14.8594 155.253 20.8709 155.253 28.2864C155.253 35.702 161.25 41.7134 168.648 41.7134Z" fill="#A0616A"/>
<path d="M169.717 10.2348C169.33 10.4616 168.81 10.1184 168.686 9.68614C168.562 9.25386 168.707 8.79489 168.85 8.36865L169.573 6.22291C170.086 4.7011 170.63 3.12612 171.74 1.96783C173.415 0.219571 176.078 -0.225177 178.476 0.0970272C181.554 0.510802 184.591 2.18166 186.023 4.94463C187.454 7.70761 186.845 11.563 184.258 13.2868C187.945 17.5217 189.23 22.2414 189.027 27.8579C188.824 33.4744 182.717 38.6435 178.735 42.6001C177.846 42.0597 177.038 39.5275 177.527 38.6076C178.016 37.6877 177.315 36.6219 177.921 35.7746C178.526 34.9273 179.033 36.2765 178.421 35.434C178.034 34.9023 179.542 33.6792 178.968 33.361C176.19 31.8219 175.266 28.3514 173.522 25.6937C171.417 22.4881 167.816 20.3172 164.004 19.9571C161.904 19.7587 159.687 20.118 157.966 21.3398C156.245 22.5616 155.131 24.7449 155.53 26.8206C154.496 25.7687 153.982 24.2272 154.176 22.7637C154.37 21.3001 155.268 19.9468 156.54 19.202C155.767 16.6388 156.429 13.6904 158.224 11.7069C160.019 9.72337 167.3 10.0612 169.92 10.5832L169.717 10.2348Z" fill="#2F2E41"/>
<path d="M170.124 20.0349C173.595 20.4104 176.101 23.4237 178.217 26.2065C179.436 27.8104 180.714 29.5817 180.683 31.5981C180.652 33.6368 179.292 35.3854 178.642 37.3175C177.58 40.4754 178.615 44.2327 181.144 46.3966C178.645 46.8718 175.944 44.9939 175.513 42.4816C175.011 39.557 177.223 36.7343 176.961 33.7784C176.73 31.1741 174.682 29.1698 172.942 27.2227C171.201 25.2755 169.566 22.6916 170.367 20.2034L170.124 20.0349Z" fill="#2F2E41"/>
<path d="M222.008 109.018C218.571 110.978 216.793 114.344 218.038 116.537C219.282 118.729 223.077 118.918 226.516 116.957C227.9 116.192 229.082 115.107 229.962 113.791L244.422 105.302L240.304 98.5854L226.485 107.666C224.907 107.752 223.372 108.215 222.008 109.018Z" fill="#FFB6B6"/>
<path d="M270.969 46.7729C270.537 46.6013 266.745 45.162 263.284 47.0622C259.307 49.2451 258.693 54.2282 258.478 55.9759C257.98 60.0133 259.446 60.9182 259.756 65.0055C260.335 72.6524 261.861 63.9288 259.423 67.4192C258.579 68.6275 249.96 87.3505 245.206 91.0178C235.961 98.1503 230.091 103.173 230.091 103.173L236.793 110.471C236.793 110.471 247.383 107.642 256.744 101.55C266.346 95.3007 271.147 92.1761 274.861 86.0634C275.181 85.537 282.834 72.5097 278.724 58.1046C277.787 54.8188 276.069 48.7986 270.969 46.7729Z" fill="#F9A826"/>
<path d="M305.577 83.1521L304.978 111.178C304.92 113.891 302.709 116.06 300.002 116.06H248.568C245.925 116.06 243.743 113.989 243.599 111.343L242.07 83.3175C241.914 80.4596 244.184 78.0565 247.04 78.0565H300.601C303.392 78.0565 305.637 80.3557 305.577 83.1521Z" fill="#3F3D56"/>
</svg>
