<svg width="409" height="477" viewBox="0 0 409 477" fill="none" xmlns="http://www.w3.org/2000/svg">
<path d="M139.989 80.0693L134.384 59.5161L159.608 50.1737L162.411 68.8585L139.989 80.0693Z" fill="#A0616A"/>
<path opacity="0.1" d="M139.989 81.0684L134.384 60.5152L149.239 54.2493L144.623 78.4795L139.989 81.0684Z" fill="black"/>
<path d="M13.7232 189.005C10.7102 184.277 14.2903 176.606 21.7197 171.871C24.9719 169.799 28.4225 168.633 31.5273 168.373L35.8344 165.703L92.7126 127.184C92.7126 127.184 131.252 83.2454 139.656 79.8193C148.06 76.3932 155.036 81.7123 155.036 81.7123L158.809 91.2204L98.3744 150.506L46.9462 177.715L39.944 181.58C38.3972 184.284 35.8829 186.92 32.6307 188.992C25.2014 193.727 16.7362 193.732 13.7232 189.005Z" fill="#A0616A"/>
<path d="M160.333 59.0533C160.333 59.0533 170.023 63.4749 172.301 73.8805C174.578 84.2862 101.229 151.681 101.229 151.681L76.0928 137.882L160.333 59.0533Z" fill="#E6E6E6"/>
<path d="M115.232 37.6263C115.232 52.0734 126.944 63.785 141.391 63.785C155.838 63.785 167.549 52.0734 167.549 37.6263C167.549 23.1793 155.838 11.4677 141.391 11.4677C126.944 11.4677 115.232 23.1793 115.232 37.6263Z" fill="#A0616A"/>
<path d="M80.1978 417.394L62.4472 461.303L52.1706 451.026L48.4336 431.407L63.3815 412.723L80.1978 417.394Z" fill="#A0616A"/>
<path d="M180.955 408.467L188.835 434.455L174.326 446.412L158.387 436.267L160.465 408.568L180.955 408.467Z" fill="#A0616A"/>
<path d="M128.311 156.275L125.976 194.111L183.898 183.835L180.161 160.479L128.311 156.275Z" fill="#A0616A"/>
<path d="M125.509 194.578L183.898 175.426C183.898 175.426 205.386 218.401 182.03 245.494C158.674 272.587 81.1323 426.736 81.1323 426.736L57.7763 415.526L91.4089 317.431L128.778 226.81L125.509 194.578Z" fill="#2F2E41"/>
<path d="M191.81 225.199L172.488 323.951L184.465 412.07L156.578 415.019L133.211 306.509L141.633 234.605L191.81 225.199Z" fill="#2F2E41"/>
<path d="M40.0256 427.671H23.8456C23.8456 427.671 4.96592 420.197 0.541168 427.671C-3.88359 435.145 20.2834 456.341 20.2834 456.341C20.2834 456.341 54.0392 475.317 58.7104 474.383C63.3816 473.448 65.25 462.237 65.25 462.237L70.8555 449.158L62.4473 451.961C62.4473 451.961 51.2365 445.421 54.0392 434.21L40.0256 427.671Z" fill="#2F2E41"/>
<path d="M184.282 435.5L188.074 426.962L194.209 439.908C194.209 439.908 208.097 453.231 189.602 460.351C171.107 467.471 148.817 473.928 148.817 473.928C148.817 473.928 120.169 469.383 121.874 460.94C123.579 452.497 126.667 450.146 126.667 450.146L138.091 449.742L156.488 431.334L169.391 439.109L184.282 435.5Z" fill="#2F2E41"/>
<path d="M149.332 42.7645L140.924 41.8302L125.509 26.4153C125.509 26.4153 111.495 33.8892 111.495 28.2838C111.495 2.12511 127.377 3.05935 140.456 1.19088C153.536 -0.677596 152.134 -1.14472 156.339 5.86207C158.261 9.06648 165.214 11.0004 165.214 11.0004C165.214 11.0004 178.293 -6.75014 184.833 14.7373C191.372 36.2248 182.964 102.556 189.504 108.161C196.044 113.767 162.652 119.364 166.269 97.4132C169.885 75.4628 176.425 41.8302 172.688 34.3563C168.951 26.8824 168.017 28.7509 168.017 28.7509C172.648 26.8601 175.674 60.1653 158.212 61.796L157.74 45.5672C157.74 45.5672 154.937 37.1591 149.332 42.7645Z" fill="#2F2E41"/>
<path d="M137.654 74.9959L165.681 63.785L203.05 175.894L126.162 173.093L119.239 139.632C119.239 139.632 112.48 122.217 118.086 111.94C123.691 101.664 137.654 74.9959 137.654 74.9959Z" fill="#E6E6E6"/>
<path d="M210.585 262.792C204.999 263.272 199.86 256.545 199.106 247.768C198.776 243.925 199.341 240.327 200.549 237.455L200.179 232.402L192.394 164.15C192.394 164.15 177.903 108.321 178.76 99.2859C179.617 90.251 180.971 87.8523 180.971 87.8523L191.146 88.913L215.685 169.937L215.972 228.119L216.153 236.115C217.833 238.739 219.004 242.188 219.333 246.03C220.087 254.808 216.17 262.312 210.585 262.792Z" fill="#A0616A"/>
<path d="M163.345 72.6602C163.345 72.6602 171.753 66.1205 182.03 68.9232C192.307 71.7259 218.05 167.952 218.05 167.952L194.175 183.835L163.345 72.6602Z" fill="#E6E6E6"/>
<path d="M316.447 301.866C316.447 305.56 325.42 232.197 325.42 232.197L390.707 240.11C402.493 241.539 410.599 252.657 408.354 264.315L396.144 327.728C395.093 329.002 393.475 330.205 391.394 331.331V474.982H382.421V334.904C375.2 337.101 365.875 338.807 355.504 339.912V474.982H346.531V340.701C331.358 341.758 314.738 341.581 299.558 339.87V474.982H290.585V338.644C287.869 338.205 285.223 337.711 282.668 337.157V474.982H273.696V334.852C268.816 333.37 264.443 331.619 260.765 329.575C227.514 311.102 316.447 298.171 316.447 301.866Z" fill="#E6E6E6"/>
<path d="M250.707 435.949L239.651 447.005L224.382 454.903L225.962 468.592L254.919 465.433L258.605 458.062L257.552 451.744L259.658 441.74L250.707 435.949Z" fill="#FFB6B6"/>
<path d="M228.068 463.327L227.164 451.711L195.952 466.486C195.952 466.486 193.535 473.33 201.061 474.383C208.588 475.436 258.605 475.436 258.605 472.804C258.605 470.171 259.973 456.694 259.973 456.694L229.647 465.433L228.068 463.327Z" fill="#2F2E41"/>
<path d="M290.474 405.239L298.472 418.675L302.371 435.417L316.028 437.253L320.088 408.408L313.85 403.023L307.468 402.489L298.289 397.988L290.474 405.239Z" fill="#FFB6B6"/>
<path d="M311.443 433.917L299.961 431.936L306.605 465.824C306.605 465.824 312.645 469.85 315.516 462.814C318.388 455.777 330.691 407.297 328.14 406.649C325.588 406.002 312.861 401.361 312.861 401.361L313.872 432.904L311.443 433.917Z" fill="#2F2E41"/>
<path d="M325.155 153.819L326.739 186.015L301.405 186.542V158.846L325.155 153.819Z" fill="#FFB6B6"/>
<path opacity="0.1" d="M325.155 153.819L326.739 186.015L301.405 186.542V158.846L325.155 153.819Z" fill="black"/>
<path d="M367.907 286.823C367.907 286.823 379.518 316.908 371.073 329.047C362.629 341.186 323.044 348.047 323.044 348.047L306.683 363.354L263.403 446.745L238.069 440.939L273.959 355.437C273.959 355.437 295.071 321.13 302.988 316.38C310.905 311.63 325.647 293.795 325.647 293.795L367.907 286.823Z" fill="#2F2E41"/>
<path d="M296.127 289.462L279.869 300.976C279.869 300.976 222.236 316.38 240.708 352.27C259.181 388.16 286.627 414.022 286.627 414.022L310.905 400.299L271.848 345.409L340.462 303.713L296.127 289.462Z" fill="#2F2E41"/>
<path d="M148.349 245.697C140.709 247.234 135.309 252.422 136.289 257.284C137.268 262.146 144.254 264.84 151.897 263.301C154.958 262.729 157.837 261.431 160.294 259.517L192.583 252.595L189.814 239.834L157.56 245.937C154.553 245.123 151.395 245.04 148.349 245.697Z" fill="#FFB6B6"/>
<path d="M302.724 174.667H335.568L359.726 191.029L357.615 255.419C357.615 255.419 353.201 271.589 368.171 286.559C377.143 295.532 373.977 300.81 373.977 300.81L320.669 305.032L288.738 295.796L300.349 266.767L298.238 257.795C298.238 257.795 276.598 242.489 280.293 226.655C283.988 210.821 288.738 178.098 288.738 178.098L302.724 174.667Z" fill="#F9A826"/>
<path d="M225.452 229.119L289.163 178.062C289.163 178.062 301.566 181.432 299.961 193.124C298.356 204.816 270.078 234.391 270.078 234.391L221.464 256.447L165.8 259.291L163.507 243.014L225.452 229.119Z" fill="#F9A826"/>
<path d="M310.114 168.861C297.871 168.861 287.946 158.936 287.946 146.694C287.946 134.451 297.871 124.526 310.114 124.526C322.356 124.526 332.281 134.451 332.281 146.694C332.281 158.936 322.356 168.861 310.114 168.861Z" fill="#FFB6B6"/>
<path d="M316.183 151.18C316.183 151.18 305.627 141.152 301.405 136.402C297.182 131.652 279.237 143.791 282.932 134.818C286.626 125.846 291.904 123.735 291.904 123.735C291.904 123.735 301.405 104.734 319.878 115.818C319.878 115.818 319.878 104.206 334.656 108.957C349.434 113.707 356.295 157.514 352.073 161.736C347.851 165.958 343.628 169.125 346.795 177.042C349.962 184.959 346.795 220.321 335.184 225.071C323.572 229.822 321.461 233.18 324.628 240.737C327.794 248.294 335.711 265.184 320.933 260.961C306.155 256.739 321.989 262.017 315.655 248.294C309.322 234.572 294.016 228.238 306.155 216.099C318.294 203.96 317.766 178.625 320.405 175.986C323.044 173.348 328.015 151.369 328.015 151.369C328.015 151.369 319.35 145.902 316.183 151.18Z" fill="#2F2E41"/>
<path d="M58.1341 474.124H257.745C270.953 474.124 281.698 463.379 281.698 450.169V165.684C281.698 152.474 270.953 141.729 257.745 141.729H58.1341C44.926 141.729 34.1812 152.474 34.1812 165.684V450.169C34.1812 463.379 44.926 474.124 58.1341 474.124Z" fill="white"/>
<path d="M58.1349 477H257.745C272.539 477 284.574 464.964 284.574 450.17V165.684C284.574 150.889 272.539 138.853 257.745 138.853H58.1349C43.341 138.853 31.3055 150.889 31.3055 165.684V450.17C31.3055 464.964 43.341 477 58.1349 477ZM257.745 140.851C271.437 140.851 282.577 151.991 282.577 165.684V450.17C282.577 463.862 271.437 475.002 257.745 475.002H58.1349C44.4429 475.002 33.3034 463.862 33.3034 450.17V165.684C33.3034 151.991 44.4429 140.851 58.1349 140.851H257.745Z" fill="#B5B5B5"/>
<path d="M270.276 328.163C264.692 333.6 262.97 340.887 266.43 344.44C269.891 347.994 277.221 346.466 282.806 341.028C285.067 338.886 286.782 336.233 287.808 333.293L311.177 309.961L301.927 300.743L278.144 323.368C275.176 324.315 272.478 325.96 270.276 328.163Z" fill="#FFB6B6"/>
<path d="M325.684 269.406L349.434 191.293C349.434 191.293 361.574 187.07 366.852 197.626C372.129 208.182 365.49 248.558 365.49 248.558L337.823 294.213L293.488 327.992L282.404 315.852L325.684 269.406Z" fill="#F9A826"/>
<mask id="mask0_613_7441" style="mask-type:alpha" maskUnits="userSpaceOnUse" x="34" y="141" width="248" height="334">
<path d="M57.953 474.09H257.564C270.772 474.09 281.517 463.345 281.517 450.135V165.655C281.517 152.445 270.772 141.7 257.564 141.7H57.953C44.7449 141.7 34.0001 152.445 34.0001 165.655V450.135C34.0001 463.345 44.7449 474.09 57.953 474.09Z" fill="white"/>
</mask>
<g mask="url(#mask0_613_7441)">
<rect x="34.0002" y="140.7" width="249" height="140.869" fill="#064C37"/>
</g>
<path d="M61.976 251.72C60.608 252.728 55.748 248.912 57.692 247.76C63.632 244.268 66.908 239.804 67.196 233.936C67.232 232.928 68.78 232.352 70.22 232.352C71.48 232.352 72.704 232.784 72.704 233.756C72.668 236.276 72.236 238.58 71.372 240.704C75.26 242.504 78.608 244.736 81.236 247.22C81.56 247.544 81.704 247.94 81.704 248.336C81.704 250.172 79.004 252.512 77.888 251.288C75.62 248.804 72.668 246.536 69.284 244.484C67.484 247.076 65 249.452 61.976 251.72ZM58.304 255.104C62.66 255.5 67.376 255.68 72.056 255.68C75.044 255.68 78.032 255.608 80.84 255.464C81.704 255.428 82.136 256.364 82.136 257.336C82.136 258.308 81.704 259.352 80.732 259.532C76.52 260.288 70.544 260.684 65.324 260.684C62.696 260.684 60.284 260.576 58.376 260.396C57.476 260.324 57.08 258.92 57.08 257.588C57.08 256.256 57.476 254.996 58.304 255.104ZM106.76 246.248C106.544 248.336 101.18 249.452 95.924 249.452C90.992 249.452 86.204 248.444 86.132 246.284C86.096 245.384 86.096 244.52 86.096 243.62C86.096 240.452 86.276 237.356 86.708 234.26C86.888 233.216 87.896 232.748 89.012 232.676C90.704 232.568 92.396 232.532 94.088 232.532C97.436 232.532 100.784 232.712 104.06 233C105.68 233.144 106.256 233.828 106.4 235.052C106.76 237.392 106.976 239.948 106.976 242.396C106.976 243.728 106.904 245.024 106.76 246.248ZM85.304 251.324C89.66 251.72 94.376 251.9 99.056 251.9C102.044 251.9 105.032 251.828 107.84 251.684C108.704 251.648 109.136 252.584 109.136 253.556C109.136 254.528 108.704 255.572 107.732 255.752C105.392 256.184 102.512 256.508 99.524 256.688L99.812 264.356C99.848 265.148 98.192 265.58 96.572 265.58C95.06 265.58 93.62 265.184 93.62 264.356C93.656 262.34 93.728 259.424 93.728 256.904H92.54C89.84 256.904 87.32 256.796 85.376 256.616C84.476 256.544 84.08 255.14 84.08 253.808C84.08 252.476 84.476 251.216 85.304 251.324ZM91.892 243.512C91.928 244.304 94.304 244.736 96.572 244.736C98.912 244.736 101.324 244.304 101.324 243.44C101.324 240.488 101.216 239.12 101.036 237.788C101 237.464 100.784 237.176 100.172 237.14C99.128 237.068 98.048 237.032 96.932 237.032C95.672 237.032 94.34 237.068 93.008 237.14C92.288 237.176 92.108 237.428 92.072 237.824C91.892 239.192 91.856 240.416 91.856 241.604C91.856 242.252 91.856 242.9 91.892 243.512ZM132.032 259.208C132.428 255.968 132.536 251.576 132.536 247.148C132.536 243.656 132.464 240.128 132.356 237.068C132.32 236.096 133.616 235.52 134.876 235.52C135.92 235.52 136.928 235.916 137.108 236.888C137.828 241.316 138.152 247.04 138.152 252.224C138.152 254.852 138.08 257.372 137.9 259.46C137.828 260.324 136.568 260.684 135.236 260.684C133.616 260.684 131.924 260.144 132.032 259.208ZM117.956 250.28C118.028 251.144 118.892 251.396 119.72 251.468C120.584 251.54 121.484 251.576 122.456 251.576C124.688 251.576 127.136 251.396 129.152 251.144C129.872 251.072 130.412 252.296 130.412 253.376C130.412 254.096 130.196 254.78 129.62 254.924C126.596 255.752 123.32 256.292 120.152 256.292C118.316 256.292 116.48 256.112 114.788 255.716C113.564 255.428 112.808 254.384 112.628 253.232C112.484 252.26 112.412 250.856 112.412 249.272C112.412 245.816 112.736 241.568 113.096 239.48C113.348 238.22 114.356 237.5 115.508 237.392C116.984 237.248 118.46 237.176 119.972 237.176C122.492 237.176 125.048 237.356 127.496 237.608C128.504 237.716 128.972 238.724 128.972 239.732C128.972 240.812 128.432 241.856 127.424 241.856C125.48 241.856 121.124 241.892 119.144 242.18C118.424 242.288 118.136 242.828 118.064 243.584C117.92 245.024 117.848 246.428 117.848 247.796C117.848 248.624 117.884 249.452 117.956 250.28Z" fill="white"/>
<circle cx="233.5" cy="279.5" r="27.5" fill="#2F80ED"/>
<mask id="mask1_613_7441" style="mask-type:alpha" maskUnits="userSpaceOnUse" x="206" y="252" width="55" height="55">
<circle cx="233.5" cy="279.5" r="27.5" fill="url(#paint0_linear_613_7441)"/>
</mask>
<g mask="url(#mask1_613_7441)">
<circle cx="233.5" cy="279.5" r="27.5" fill="#9DABB7"/>
<path d="M226.611 268.579C226.101 268.469 225.632 268.579 225.203 268.91C224.775 269.24 224.386 269.712 224.037 270.325C223.704 270.941 223.404 271.652 223.135 272.459C222.887 273.252 222.679 274.054 222.513 274.865C222.364 275.592 222.303 276.223 222.331 276.758C222.375 277.297 222.479 277.752 222.644 278.123C222.812 278.477 223.038 278.755 223.323 278.958C223.624 279.164 223.955 279.307 224.317 279.385C224.679 279.463 225.04 279.462 225.4 279.381C225.78 279.287 226.136 279.099 226.469 278.819C226.801 278.538 227.103 278.153 227.375 277.665C227.651 277.16 227.866 276.527 228.022 275.767C228.209 274.854 228.327 273.989 228.374 273.17C228.422 272.35 228.392 271.62 228.283 270.979C228.177 270.321 227.986 269.786 227.71 269.373C227.438 268.943 227.071 268.679 226.611 268.579ZM227.458 264.448C228.478 264.669 229.341 265.147 230.049 265.882C230.774 266.622 231.335 267.528 231.733 268.603C232.131 269.677 232.366 270.875 232.439 272.196C232.515 273.501 232.412 274.838 232.132 276.206C231.588 278.859 230.631 280.761 229.261 281.911C227.895 283.045 226.036 283.357 223.684 282.848C221.382 282.349 219.819 281.341 218.997 279.822C218.195 278.289 218.061 276.222 218.595 273.62C218.896 272.15 219.335 270.807 219.911 269.59C220.503 268.377 221.186 267.352 221.959 266.513C222.732 265.675 223.587 265.066 224.524 264.686C225.46 264.307 226.438 264.227 227.458 264.448Z" fill="#FFFBEA"/>
<ellipse cx="227.083" cy="271.418" rx="1.89081" ry="1.94257" fill="#FFFBEA"/>
<path d="M242.368 271.169C241.858 271.058 241.389 271.169 240.961 271.499C240.532 271.83 240.143 272.302 239.794 272.915C239.462 273.531 239.161 274.242 238.893 275.049C238.644 275.842 238.437 276.644 238.27 277.455C238.121 278.182 238.061 278.813 238.088 279.348C238.132 279.887 238.237 280.342 238.401 280.713C238.569 281.067 238.795 281.345 239.08 281.548C239.381 281.754 239.713 281.897 240.074 281.975C240.436 282.053 240.797 282.052 241.157 281.971C241.537 281.877 241.894 281.689 242.226 281.408C242.558 281.127 242.861 280.743 243.133 280.255C243.408 279.75 243.624 279.117 243.779 278.357C243.967 277.444 244.084 276.578 244.132 275.759C244.18 274.94 244.149 274.21 244.04 273.569C243.935 272.911 243.744 272.375 243.468 271.963C243.195 271.533 242.829 271.269 242.368 271.169ZM243.215 267.038C244.235 267.258 245.099 267.737 245.807 268.472C246.531 269.211 247.092 270.118 247.49 271.192C247.888 272.267 248.124 273.465 248.196 274.786C248.272 276.091 248.17 277.428 247.889 278.796C247.345 281.449 246.388 283.351 245.018 284.501C243.652 285.635 241.793 285.947 239.441 285.438C237.139 284.939 235.577 283.931 234.755 282.411C233.953 280.879 233.818 278.812 234.352 276.21C234.653 274.74 235.092 273.397 235.668 272.18C236.26 270.967 236.943 269.941 237.716 269.103C238.489 268.265 239.344 267.656 240.281 267.276C241.218 266.896 242.196 266.817 243.215 267.038Z" fill="#FFFBEA"/>
<ellipse cx="242.84" cy="274.008" rx="1.89081" ry="1.94257" fill="#FFFBEA"/>
<path d="M240.583 291.941C239.938 292.349 239.254 292.74 238.531 293.114C237.826 293.513 237.028 293.844 236.136 294.105C235.244 294.366 234.252 294.535 233.159 294.612C232.083 294.714 230.862 294.672 229.497 294.486C227.428 294.206 225.578 293.572 223.948 292.586C222.335 291.625 220.949 290.323 219.791 288.681C219.584 288.383 219.518 288.025 219.592 287.608C219.686 287.193 219.835 286.909 220.038 286.757C220.268 286.563 220.546 286.466 220.873 286.465C221.197 286.487 221.5 286.674 221.781 287.027C222.913 288.553 224.128 289.674 225.426 290.39C226.723 291.106 228.125 291.567 229.631 291.771C230.696 291.916 231.628 291.975 232.428 291.948C233.229 291.922 233.989 291.811 234.709 291.616C235.426 291.444 236.155 291.172 236.898 290.8C237.638 290.45 238.489 290.026 239.452 289.527C239.848 289.31 240.202 289.257 240.515 289.367C240.845 289.502 241.074 289.713 241.2 290C241.344 290.312 241.373 290.642 241.287 290.991C241.219 291.364 240.984 291.681 240.583 291.941Z" fill="#FFFBEA"/>
<circle cx="233.52" cy="279.52" r="26.1033" stroke="#FFFBEA"/>
</g>
<path d="M235.867 348.694L79.6618 343.972C68.8129 343.644 67.7719 326.674 78.7196 327.005L234.924 331.727C245.773 332.055 246.814 349.025 235.867 348.694Z" fill="#F9A826"/>
<path d="M235.867 394.694L79.6618 389.972C68.8129 389.644 67.7719 372.674 78.7196 373.005L234.924 377.727C245.773 378.055 246.814 395.025 235.867 394.694Z" fill="#F9A826"/>
<path d="M234.867 440.694L78.6618 435.972C67.8129 435.644 66.7719 418.674 77.7196 419.005L233.924 423.727C244.773 424.055 245.814 441.025 234.867 440.694Z" fill="#F9A826"/>
<defs>
<linearGradient id="paint0_linear_613_7441" x1="233.5" y1="252" x2="233.5" y2="307" gradientUnits="userSpaceOnUse">
<stop stop-color="#FFC1C2"/>
<stop offset="1" stop-color="#E97C7C"/>
</linearGradient>
</defs>
</svg>
