<svg width="801" height="659" viewBox="0 0 801 659" fill="none" xmlns="http://www.w3.org/2000/svg">
<path d="M356.373 231.938H383.025C400.146 231.938 414.025 245.817 414.025 262.938V341.515C414.025 358.636 400.146 372.515 383.025 372.515H356.373V231.938Z" fill="#A3BAC0"/>
<path d="M356.373 246.943H387.02C393.647 246.943 399.02 252.316 399.02 258.943V345.51C399.02 352.137 393.647 357.51 387.02 357.51H356.373V246.943Z" fill="#064C37"/>
<rect x="200" y="184.552" width="156.373" height="220.343" rx="25" fill="#D9D9D9"/>
<rect x="200" y="184.552" width="156.373" height="220.343" rx="25" fill="#E57C86"/>
<path d="M216.585 173.229C216.585 167.706 221.062 163.229 226.585 163.229H328.998C334.521 163.229 338.998 167.706 338.998 173.229V184.552H216.585V173.229Z" fill="#A3BAC0"/>
<rect x="234.034" y="88.158" width="26.0621" height="244.826" transform="rotate(-9.90556 234.034 88.158)" fill="#A4C6D2"/>
<path d="M239.666 120.628L267.31 127.426L271.929 153.877L244.285 147.08L239.666 120.628Z" fill="#E05963"/>
<path d="M233.96 87.9526L259.633 83.4693L263.641 106.42L235.998 99.6225L233.96 87.9526Z" fill="#E05963"/>
<path d="M247.953 168.085L275.597 174.883L280.216 201.334L252.572 194.537L247.953 168.085Z" fill="#E05963"/>
<path d="M256.241 215.543L283.884 222.34L288.503 248.792L260.86 241.994L256.241 215.543Z" fill="#E05963"/>
<path d="M264.528 263L292.171 269.797L296.791 296.249L269.147 289.452L264.528 263Z" fill="#E05963"/>
<path d="M272.815 310.457L300.459 317.255L301.817 325.035L276.144 329.518L272.815 310.457Z" fill="#E05963"/>
<path d="M200 209.552C200 195.745 211.193 184.552 225 184.552H329.916C329.916 184.552 344.526 200.742 324.387 206.271C304.248 211.799 268.314 235.887 277.002 259.185C285.689 282.483 297.93 324.735 273.053 343.294C248.175 361.854 258.837 404.896 258.837 404.896H249.36H225C211.193 404.896 200 393.703 200 379.896V209.552Z" fill="#EA6872"/>
<rect opacity="0.5" x="216.585" y="206.666" width="12.6362" height="142.947" rx="6.31809" fill="white"/>
<rect opacity="0.5" x="216.585" y="361.459" width="12.6362" height="20.5338" rx="6.31809" fill="white"/>
<path d="M483.841 246.806H518C535.121 246.806 549 260.685 549 277.806V374.685C549 391.806 535.121 405.685 518 405.685H483.841V246.806Z" fill="#A3BAC0"/>
<path d="M483.841 263.765H520.041C526.668 263.765 532.041 269.137 532.041 275.765V376.726C532.041 383.354 526.668 388.726 520.041 388.726H483.841V263.765Z" fill="#064C37"/>
<rect x="307.11" y="193.251" width="176.731" height="249.031" rx="25" fill="#D9D9D9"/>
<rect x="307.11" y="193.251" width="176.731" height="249.031" rx="25" fill="#FCE4BB"/>
<path d="M325.854 179.151C325.854 173.628 330.331 169.151 335.854 169.151H454.204C459.727 169.151 464.204 173.628 464.204 179.151V193.251H325.854V179.151Z" fill="#A3BAC0"/>
<rect x="345.574" y="84.3062" width="29.4552" height="276.701" transform="rotate(-9.90556 345.574 84.3062)" fill="#A4C6D2"/>
<path d="M351.94 121.004L383.183 128.687L388.403 158.582L357.161 150.899L351.94 121.004Z" fill="#F5C85B"/>
<path d="M345.491 84.0745L374.507 79.0074L379.037 104.946L347.794 97.2636L345.491 84.0745Z" fill="#F5C85B"/>
<path d="M361.306 174.64L392.549 182.322L397.769 212.218L366.527 204.535L361.306 174.64Z" fill="#F5C85B"/>
<path d="M370.673 228.276L401.915 235.958L407.136 265.854L375.893 258.171L370.673 228.276Z" fill="#F5C85B"/>
<path d="M380.039 281.912L411.281 289.594L416.502 319.49L385.259 311.807L380.039 281.912Z" fill="#F5C85B"/>
<path d="M389.405 335.547L420.648 343.23L422.183 352.023L393.167 357.09L389.405 335.547Z" fill="#F5C85B"/>
<path d="M307.11 218.251C307.11 204.444 318.303 193.251 332.11 193.251H453.94C453.94 193.251 470.453 211.549 447.692 217.797C424.931 224.045 384.318 251.269 394.137 277.6C403.955 303.931 417.79 351.684 389.674 372.66C361.557 393.636 373.607 442.281 373.607 442.281H362.896H332.11C318.303 442.281 307.11 431.089 307.11 417.281V218.251Z" fill="#FCD276"/>
<rect opacity="0.5" x="325.854" y="218.243" width="14.2813" height="161.558" rx="7.14066" fill="white"/>
<rect opacity="0.5" x="325.854" y="393.189" width="14.2813" height="23.2072" rx="7.14066" fill="white"/>
<path d="M54.265 490.615C43.3084 484.056 31.6636 482.538 15.9159 483.093C15.9159 483.093 19.5759 492.731 24.2621 497.317C29.2831 502.23 34.4493 504.275 41.9036 506.525C50.96 509.259 66.1115 508.102 66.1115 508.102C66.1115 508.102 65.2216 497.174 54.265 490.615Z" fill="#336664"/>
<rect width="8" height="58" transform="matrix(-0.998436 0.0559066 0.0559066 0.998436 65.6794 460.664)" fill="#336664"/>
<g filter="url(#filter0_i_627_2495)">
<path d="M39.3185 568.652C57.3321 604.721 107.326 635.847 130.301 624.372C147.748 611.187 113.767 591.831 122.176 542.361C129.235 500.831 79.3195 488.315 56.3442 499.789C33.369 511.264 21.3048 532.584 39.3185 568.652Z" fill="#F5C85B"/>
</g>
<path d="M675.305 149.483C663.531 140.92 647.921 135.151 632.637 137.197C632.637 137.197 639.265 149.253 644.132 154.955C649.347 161.065 658.313 167.54 666.533 170.831C676.519 174.83 687.053 170.651 687.053 170.651C687.053 170.651 687.079 158.046 675.305 149.483Z" fill="#336664"/>
<path d="M661.941 138.246C671.47 123.09 685.041 113.88 705.04 104.723C705.04 104.723 706.558 119.204 703.607 127.938C700.444 137.296 695.289 143.117 687.41 150.63C677.836 159.757 658.201 167.78 658.201 167.78C658.201 167.78 652.412 153.401 661.941 138.246Z" fill="#4E8987"/>
<g filter="url(#filter1_i_627_2495)">
<ellipse cx="706.066" cy="188.934" rx="48.5" ry="52.5" transform="rotate(-21.9309 706.066 188.934)" fill="#EFA17F"/>
</g>
<g filter="url(#filter2_ii_627_2495)">
<ellipse cx="677.683" cy="201.439" rx="48.5" ry="52.5" transform="rotate(-21.9309 677.683 201.439)" fill="#EFA17F"/>
</g>
<path d="M513 504.283L520.346 501.114C520.346 501.114 534.514 514.111 539 524.51C543.486 534.908 543.319 554.37 543.319 554.37L535.973 557.539C533.5 532.51 537.5 528.51 513 504.283Z" fill="#336664"/>
<path d="M539.225 515.772C543.461 502.177 551.328 495.081 563.577 489C563.577 489 566.759 503.581 566.047 511.796C565.283 520.598 562.639 525.595 558.392 531.862C553.233 539.475 541.063 544.486 541.063 544.486C541.063 544.486 534.99 529.367 539.225 515.772Z" fill="#336664"/>
<path d="M603.065 567.5C603.065 585.098 592.702 616.077 580.065 627.731C565.427 641.231 559.065 643.231 539.065 631.231C520.565 642.731 513.455 641.231 500.565 629.231C489.128 618.584 475.065 590.731 475.065 571.732C475.065 554.764 481.834 535.249 493.565 529.731C505.126 524.294 518.065 518.231 539.065 534.731C552.565 522.731 566.613 522.42 578.065 526.231C591.228 530.613 603.065 548.5 603.065 567.5Z" fill="#E55C61"/>
<path d="M562.065 639C575.565 636 585.065 622 585.065 622C585.065 622 539.868 625.401 517.065 609C494.023 592.426 480.065 546 480.065 546C478.825 549.1 474.414 560.769 475.065 575C475.464 583.724 479.145 594.659 482.565 601.5C486.071 608.511 491.555 619.79 497.565 626C507.065 635.816 509.065 637.5 518.065 639C526.513 640.408 539.065 631 539.065 631C539.065 631 551.575 641.331 562.065 639Z" fill="#DB4954"/>
<path d="M628.486 487.312C630.474 482.195 633.653 480.554 637.081 480.563C642.995 480.579 652.219 490.178 659.597 497.578C668.598 506.608 675.128 512.991 675.128 512.991C675.128 512.991 666.102 510.971 655.022 508.905C645.566 507.142 634.169 505.889 630.473 499.881C627.527 495.092 626.682 491.958 628.486 487.312Z" fill="#336644"/>
<path d="M660.606 462.311C666.466 461.807 670.121 463.894 672.509 466.93C676.628 472.167 674.691 484.568 673.383 494.362C671.787 506.313 670.776 514.91 670.776 514.91C670.776 514.91 666.231 506.034 660.291 495.321C655.222 486.179 648.35 475.545 651.015 469.621C653.139 464.9 655.286 462.767 660.606 462.311Z" fill="#336644"/>
<path d="M636.559 465.73C640.914 462.117 644.837 461.939 648.238 463.268C654.108 465.562 658.812 477.331 662.702 486.507C667.449 497.703 670.971 505.683 670.971 505.683C670.971 505.683 662.94 500.475 652.89 494.435C644.312 489.281 633.569 483.815 632.69 477.25C631.989 472.017 632.606 469.009 636.559 465.73Z" fill="#1E5430"/>
<g filter="url(#filter3_i_627_2495)">
<path d="M659.699 489.069C666.477 484.5 670.906 483.353 679.238 481.569C684.128 480.522 688 479.476 695.773 485.709C702.809 491.351 708.349 498.69 710.77 501.918C720.876 515.392 740.33 546.978 761.916 582.574C773.153 601.102 792.501 620.956 777.065 632.431C767.417 639.602 759.12 632.188 759.12 632.188L717.32 593.654L680.307 559.201C680.307 559.201 651.58 534.717 644.806 521.361C640.797 513.454 643.24 508.279 647.68 500.833C651.198 494.935 654.253 492.74 659.699 489.069Z" fill="#ED753A"/>
</g>
<path d="M665.589 545.34L685.932 527.402L691.314 533.449L671.944 551.138L665.589 545.34Z" fill="#EFA17F"/>
<rect x="700.895" y="552.614" width="24.3179" height="8.09568" transform="rotate(-41.6688 700.895 552.614)" fill="#EFA17F"/>
<path d="M708.187 584.284L727.527 567.583L732.909 573.631L713.948 589.698L708.187 584.284Z" fill="#EFA17F"/>
<path d="M737.577 599.752L753.887 585.237L758.507 592.429L742.959 605.8L737.577 599.752Z" fill="#EFA17F"/>
<path d="M215.546 594.512C192.106 573.199 196.986 505.069 202.776 502.115C209.274 498.8 260.938 555.222 265.813 570.9L262.389 572.36C250.87 551.725 230.02 524.741 205.256 505.95C204.339 505.254 204.073 505.32 203.877 506.538C196.708 550.907 208.402 583.426 218.237 591.19L215.546 594.512Z" fill="#336664"/>
<g filter="url(#filter4_i_627_2495)">
<path d="M289.721 551.78C296.768 557.311 301.072 565.58 300.629 574.325C300.238 582.022 295.878 590.095 290.531 596.908C276.331 615.001 259.415 614.437 246.164 604.037C230.57 589.892 231.322 578.406 235.923 569.304C243.556 558.769 256.392 561.851 256.392 561.851C256.392 561.851 268.874 535.419 289.721 551.78Z" fill="#E55C61"/>
</g>
<path d="M272.675 561.336C273.207 559.849 274.124 556.897 279.497 555.884C284.718 554.9 293.042 560.858 292.506 569.273C292.158 574.729 287.911 581.389 287.257 575.961C285.311 559.814 269.731 569.573 272.675 561.336Z" fill="#DB4954"/>
<g filter="url(#filter5_i_627_2495)">
<path d="M244.844 584.752C248.358 592.992 248.15 602.312 243.552 609.763C239.504 616.322 231.797 621.299 223.83 624.697C202.673 633.72 188.118 625.082 181.51 609.588C174.651 589.683 180.84 579.977 189.254 574.215C201.015 568.655 210.782 577.535 210.782 577.535C210.782 577.535 234.448 560.376 244.844 584.752Z" fill="#E55C61"/>
</g>
<path d="M223.428 584.146C224.61 583.099 226.835 580.953 232.031 582.652C237.082 584.302 241.51 593.531 236.989 600.649C234.058 605.265 227.13 609.057 229.169 603.984C235.236 588.895 216.882 589.949 223.428 584.146Z" fill="#DB4954"/>
<path d="M420.467 562.44C404.464 569.727 394.549 561.221 381.88 555.318C381.88 555.318 391.852 542.343 399.341 537.586C406.95 532.753 408.115 532.683 417.447 531.713C426.993 530.72 442.086 535.656 442.086 535.656C442.086 535.656 436.47 555.152 420.467 562.44Z" fill="#336664"/>
<path d="M401.556 534.417C398.887 548.06 392.462 553.17 382.625 559.01C382.625 559.01 379.01 546.924 379.066 539.967C379.126 532.513 381.007 528.152 384.145 522.627C387.956 515.915 397.797 510.981 397.797 510.981C397.797 510.981 404.225 520.774 401.556 534.417Z" fill="#407372"/>
<circle cx="362.198" cy="555.174" r="29.4397" transform="rotate(-3.88482 362.198 555.174)" fill="#6F5384"/>
<circle cx="409.883" cy="581.443" r="29.4397" transform="rotate(-3.88482 409.883 581.443)" fill="#604175"/>
<circle cx="368.121" cy="594.115" r="29.4397" transform="rotate(-3.88482 368.121 594.115)" fill="#533165"/>
<circle cx="358.27" cy="545.604" r="6.54215" transform="rotate(-3.88482 358.27 545.604)" fill="#533165"/>
<circle cx="419.23" cy="574.251" r="6.54215" transform="rotate(-3.88482 419.23 574.251)" fill="#533165"/>
<circle cx="374.759" cy="595.303" r="6.54215" transform="rotate(-3.88482 374.759 595.303)" fill="#6F5384"/>
<g filter="url(#filter6_i_627_2495)">
<rect x="661.922" y="341.591" width="19.5034" height="109.337" rx="9.75168" transform="rotate(-52.3324 661.922 341.591)" fill="#95D528"/>
</g>
<path d="M743.709 414.613C741.754 417.145 720.318 396.555 686.169 399.685C666.581 401.48 656.14 408.419 654.595 399.596C653.821 395.175 656.138 396.092 660.226 394.237C678.177 386.09 707.182 392.408 713.74 392.618C716.99 392.722 662.142 355.004 659.981 353.335C655.833 350.133 654.1 339.794 660.638 343.411C715.314 373.653 722.709 394.202 733.361 392.831C734.19 392.725 734.625 392.645 736.952 389.631C741.998 383.094 719.427 374.982 687.205 316.135C685.076 312.247 694.399 310.598 696.326 314.591C700.348 322.922 735.126 372.169 737.326 371.254C739.526 370.339 723.057 360.239 725.089 304.296C725.239 300.17 734.438 301.971 734.157 306.091C729.965 367.458 766.632 384.918 762.298 390.532L743.709 414.613Z" fill="#B9EA6A"/>
<g filter="url(#filter7_i_627_2495)">
<path d="M636.203 389.414C636.203 389.414 621.632 388.157 618.092 369.353C615.461 355.375 625.705 351.817 626.873 346.373C628.453 339.006 621.021 333.642 629.689 322.415C638.357 311.187 642.735 310.834 654.32 310.818C659.91 308.413 658.966 300.176 673.753 294.834C684.624 290.907 694.365 305.369 700.07 297.979C706.029 290.26 713.07 284.495 723.767 285.66C740.564 287.489 757.778 309.303 738.412 329.071C722.793 345.012 704.259 323.984 698.514 333.362C692.497 343.184 712.509 347.899 706.236 368.815C700.782 387.003 682.3 382.896 682.872 386.99C685.506 405.823 673.062 411.788 673.062 411.788C673.062 411.788 659.601 423.422 642.775 410.433C633.81 401.886 636.203 389.414 636.203 389.414Z" fill="#118E5E"/>
</g>
<circle cx="645.002" cy="363.994" r="3.25056" transform="rotate(-52.3324 645.002 363.994)" fill="#027B50"/>
<circle cx="645.273" cy="353.004" r="3.25056" transform="rotate(-52.3324 645.273 353.004)" fill="#027B50"/>
<circle cx="657.651" cy="321.495" r="3.25056" transform="rotate(-52.3324 657.651 321.495)" fill="#027B50"/>
<circle cx="671.357" cy="355.967" r="3.25056" transform="rotate(-52.3324 671.357 355.967)" fill="#027B50"/>
<circle cx="717.585" cy="296.086" r="3.25056" transform="rotate(-52.3324 717.585 296.086)" fill="#027B50"/>
<circle cx="649.244" cy="390.414" r="3.25056" transform="rotate(-52.3324 649.244 390.414)" fill="#027B50"/>
<circle cx="673.309" cy="394.059" r="3.25056" transform="rotate(-52.3324 673.309 394.059)" fill="#118E5E"/>
<path d="M483.983 92.783C493.466 85.0599 501.251 83.5913 517.775 85.3897C517.775 85.3897 515.95 95.4147 512.129 100.421C508.035 105.786 502.859 110.509 496.116 113.647C487.924 117.459 473.667 115.949 473.667 115.949C473.667 115.949 474.501 100.506 483.983 92.783Z" fill="#336664"/>
<path d="M474.655 115.138C477.304 112.163 503.217 94.0639 509.481 89.9405C509.926 89.6472 496.704 99.9034 493.751 102.124C490.798 104.344 474.996 115.119 474.671 115.342C474.549 115.427 474.012 115.86 474.655 115.138Z" fill="#1E1E1E"/>
<path d="M453.177 87.1583C447.863 78.5735 447.6 72.1417 451.179 59.1125C451.179 59.1125 459.388 61.8452 463.124 65.5441C467.126 69.5072 470.455 74.2568 472.253 80.0637C474.437 87.1187 471.383 98.3653 471.383 98.3653C471.383 98.3653 458.492 95.7431 453.177 87.1583Z" fill="#336664"/>
<path d="M470.825 97.4708C468.652 94.9691 456.66 71.8894 453.972 66.3426C453.781 65.948 460.76 77.8535 462.259 80.5035C463.759 83.1534 470.851 97.1948 470.998 97.4831C471.054 97.5923 471.352 98.0775 470.825 97.4708Z" fill="#1E1E1E"/>
<path d="M104.983 189.715C96.2406 181.163 93.9037 173.593 93.8279 156.972C93.8279 156.972 103.995 157.656 109.4 160.888C115.192 164.351 120.469 168.961 124.347 175.307C129.058 183.018 129.164 197.354 129.164 197.354C129.164 197.354 113.726 198.266 104.983 189.715Z" fill="#336664"/>
<path d="M128.248 196.464C124.993 194.167 104.088 170.459 99.285 164.701C98.9432 164.291 110.625 176.273 113.164 178.956C115.703 181.64 128.19 196.128 128.449 196.425C128.547 196.537 129.037 197.021 128.248 196.464Z" fill="#1E1E1E"/>
<g filter="url(#filter8_i_627_2495)">
<path d="M551.042 51.3188C547.874 66.5059 533.325 75.6697 516.383 72.1351C499.44 68.6004 487.828 52.0335 490.996 36.8464C494.164 21.6593 507.617 16.9685 524.56 20.5031C541.503 24.0378 554.21 36.1317 551.042 51.3188Z" fill="#E55C61"/>
</g>
<path d="M510.833 37.7926C505.766 40.9965 500.139 40.8965 498.28 37.9566C496.421 35.0166 499.31 30.7319 504.378 27.5279C509.445 24.324 515.533 24.127 517.391 27.0669C519.25 30.0068 515.901 34.5887 510.833 37.7926Z" fill="#F26E73"/>
<path d="M514.567 12.3229C514.83 14.9724 520.743 17.5753 523.666 18.5456C525.464 12.4571 527.838 10.0128 534.732 7.5206L539.23 13.3239C534.961 14.9188 532.748 16.1142 529.121 18.7827C535.043 18.702 538.152 19.364 543.382 21.758C539.5 21.6836 537.636 21.9229 535.151 23.1038C539.716 24.9391 542.809 25.6727 549.34 26.4245C543.043 29.1207 538.743 29.3208 529.613 27.1738C524.25 30.2877 520.366 30.6306 511.767 28.6761C514.506 27.571 515.831 26.6356 517.768 24.3423C517.768 24.3423 505.636 21.2287 499.132 15.9498C505.348 18.3078 508.851 19.0247 515.152 19.292C515.152 19.292 513.88 14.0535 514.567 12.3229Z" fill="#336664"/>
<g filter="url(#filter9_i_627_2495)">
<path d="M178.879 428.645C183.63 443.413 175.51 458.569 159.034 463.869C142.558 469.169 124.276 460.504 119.525 445.735C114.775 430.966 124.152 420.24 140.629 414.941C157.105 409.641 174.129 413.876 178.879 428.645Z" fill="#E55C61"/>
</g>
<path d="M137.239 436.755C134.416 442.044 129.475 444.738 126.406 443.101C123.338 441.463 123.732 436.311 126.554 431.021C129.376 425.732 134.571 422.552 137.64 424.19C140.709 425.827 140.061 431.465 137.239 436.755Z" fill="#F26E73"/>
<path d="M127.899 412.768C129.436 414.941 135.863 414.282 138.884 413.681C137.438 407.499 138.295 404.201 143.057 398.628L149.834 401.45C146.911 404.946 145.578 407.079 143.743 411.192C148.852 408.195 151.882 407.234 157.612 406.731C154.201 408.584 152.698 409.714 151.121 411.968C155.996 411.308 159.048 410.418 165.098 407.843C160.956 413.299 157.316 415.598 148.318 418.243C145.195 423.601 141.987 425.818 133.545 428.368C135.381 426.054 136.07 424.586 136.621 421.635C136.621 421.635 124.535 424.924 116.272 423.548C122.841 422.526 126.241 421.419 131.851 418.537C131.851 418.537 128.156 414.612 127.899 412.768Z" fill="#336664"/>
<defs>
<filter id="filter0_i_627_2495" x="30.6206" y="495.739" width="104.737" height="131.052" filterUnits="userSpaceOnUse" color-interpolation-filters="sRGB">
<feFlood flood-opacity="0" result="BackgroundImageFix"/>
<feBlend mode="normal" in="SourceGraphic" in2="BackgroundImageFix" result="shape"/>
<feColorMatrix in="SourceAlpha" type="matrix" values="0 0 0 0 0 0 0 0 0 0 0 0 0 0 0 0 0 0 127 0" result="hardAlpha"/>
<feOffset dx="-14" dy="-10"/>
<feComposite in2="hardAlpha" operator="arithmetic" k2="-1" k3="1"/>
<feColorMatrix type="matrix" values="0 0 0 0 0.901961 0 0 0 0 0.709804 0 0 0 0 0.298039 0 0 0 1 0"/>
<feBlend mode="normal" in2="shape" result="effect1_innerShadow_627_2495"/>
</filter>
<filter id="filter1_i_627_2495" x="656.976" y="136.959" width="98.1799" height="103.949" filterUnits="userSpaceOnUse" color-interpolation-filters="sRGB">
<feFlood flood-opacity="0" result="BackgroundImageFix"/>
<feBlend mode="normal" in="SourceGraphic" in2="BackgroundImageFix" result="shape"/>
<feColorMatrix in="SourceAlpha" type="matrix" values="0 0 0 0 0 0 0 0 0 0 0 0 0 0 0 0 0 0 127 0" result="hardAlpha"/>
<feOffset dx="15" dy="-11"/>
<feComposite in2="hardAlpha" operator="arithmetic" k2="-1" k3="1"/>
<feColorMatrix type="matrix" values="0 0 0 0 0.937255 0 0 0 0 0.529412 0 0 0 0 0.301961 0 0 0 1 0"/>
<feBlend mode="normal" in2="shape" result="effect1_innerShadow_627_2495"/>
</filter>
<filter id="filter2_ii_627_2495" x="628.593" y="149.465" width="98.1799" height="103.949" filterUnits="userSpaceOnUse" color-interpolation-filters="sRGB">
<feFlood flood-opacity="0" result="BackgroundImageFix"/>
<feBlend mode="normal" in="SourceGraphic" in2="BackgroundImageFix" result="shape"/>
<feColorMatrix in="SourceAlpha" type="matrix" values="0 0 0 0 0 0 0 0 0 0 0 0 0 0 0 0 0 0 127 0" result="hardAlpha"/>
<feOffset dx="15" dy="-11"/>
<feComposite in2="hardAlpha" operator="arithmetic" k2="-1" k3="1"/>
<feColorMatrix type="matrix" values="0 0 0 0 0.937255 0 0 0 0 0.529412 0 0 0 0 0.301961 0 0 0 1 0"/>
<feBlend mode="normal" in2="shape" result="effect1_innerShadow_627_2495"/>
<feColorMatrix in="SourceAlpha" type="matrix" values="0 0 0 0 0 0 0 0 0 0 0 0 0 0 0 0 0 0 127 0" result="hardAlpha"/>
<feOffset dx="-10"/>
<feComposite in2="hardAlpha" operator="arithmetic" k2="-1" k3="1"/>
<feColorMatrix type="matrix" values="0 0 0 0 0.929412 0 0 0 0 0.458824 0 0 0 0 0.227451 0 0 0 1 0"/>
<feBlend mode="normal" in2="effect1_innerShadow_627_2495" result="effect2_innerShadow_627_2495"/>
</filter>
<filter id="filter3_i_627_2495" x="642.776" y="480.775" width="140.03" height="154.781" filterUnits="userSpaceOnUse" color-interpolation-filters="sRGB">
<feFlood flood-opacity="0" result="BackgroundImageFix"/>
<feBlend mode="normal" in="SourceGraphic" in2="BackgroundImageFix" result="shape"/>
<feColorMatrix in="SourceAlpha" type="matrix" values="0 0 0 0 0 0 0 0 0 0 0 0 0 0 0 0 0 0 127 0" result="hardAlpha"/>
<feOffset dx="-7" dy="5"/>
<feComposite in2="hardAlpha" operator="arithmetic" k2="-1" k3="1"/>
<feColorMatrix type="matrix" values="0 0 0 0 0.862891 0 0 0 0 0.284416 0 0 0 0 0 0 0 0 1 0"/>
<feBlend mode="normal" in2="shape" result="effect1_innerShadow_627_2495"/>
</filter>
<filter id="filter4_i_627_2495" x="233.03" y="546.437" width="67.6301" height="64.8645" filterUnits="userSpaceOnUse" color-interpolation-filters="sRGB">
<feFlood flood-opacity="0" result="BackgroundImageFix"/>
<feBlend mode="normal" in="SourceGraphic" in2="BackgroundImageFix" result="shape"/>
<feColorMatrix in="SourceAlpha" type="matrix" values="0 0 0 0 0 0 0 0 0 0 0 0 0 0 0 0 0 0 127 0" result="hardAlpha"/>
<feOffset dx="15" dy="-11"/>
<feComposite in2="hardAlpha" operator="arithmetic" k2="-1" k3="1"/>
<feColorMatrix type="matrix" values="0 0 0 0 0.858824 0 0 0 0 0.286275 0 0 0 0 0.329412 0 0 0 1 0"/>
<feBlend mode="normal" in2="shape" result="effect1_innerShadow_627_2495"/>
</filter>
<filter id="filter5_i_627_2495" x="178.568" y="571.669" width="68.6985" height="56.6909" filterUnits="userSpaceOnUse" color-interpolation-filters="sRGB">
<feFlood flood-opacity="0" result="BackgroundImageFix"/>
<feBlend mode="normal" in="SourceGraphic" in2="BackgroundImageFix" result="shape"/>
<feColorMatrix in="SourceAlpha" type="matrix" values="0 0 0 0 0 0 0 0 0 0 0 0 0 0 0 0 0 0 127 0" result="hardAlpha"/>
<feOffset dx="10" dy="-8"/>
<feComposite in2="hardAlpha" operator="arithmetic" k2="-1" k3="1"/>
<feColorMatrix type="matrix" values="0 0 0 0 0.858824 0 0 0 0 0.286275 0 0 0 0 0.329412 0 0 0 1 0"/>
<feBlend mode="normal" in2="shape" result="effect1_innerShadow_627_2495"/>
</filter>
<filter id="filter6_i_627_2495" x="665.848" y="330.079" width="90.6138" height="74.3998" filterUnits="userSpaceOnUse" color-interpolation-filters="sRGB">
<feFlood flood-opacity="0" result="BackgroundImageFix"/>
<feBlend mode="normal" in="SourceGraphic" in2="BackgroundImageFix" result="shape"/>
<feColorMatrix in="SourceAlpha" type="matrix" values="0 0 0 0 0 0 0 0 0 0 0 0 0 0 0 0 0 0 127 0" result="hardAlpha"/>
<feOffset dx="-11"/>
<feComposite in2="hardAlpha" operator="arithmetic" k2="-1" k3="1"/>
<feColorMatrix type="matrix" values="0 0 0 0 0.537255 0 0 0 0 0.776471 0 0 0 0 0.14902 0 0 0 1 0"/>
<feBlend mode="normal" in2="shape" result="effect1_innerShadow_627_2495"/>
</filter>
<filter id="filter7_i_627_2495" x="617.662" y="285.51" width="129.319" height="131.07" filterUnits="userSpaceOnUse" color-interpolation-filters="sRGB">
<feFlood flood-opacity="0" result="BackgroundImageFix"/>
<feBlend mode="normal" in="SourceGraphic" in2="BackgroundImageFix" result="shape"/>
<feColorMatrix in="SourceAlpha" type="matrix" values="0 0 0 0 0 0 0 0 0 0 0 0 0 0 0 0 0 0 127 0" result="hardAlpha"/>
<feOffset dx="-20" dy="-17"/>
<feComposite in2="hardAlpha" operator="arithmetic" k2="-1" k3="1"/>
<feColorMatrix type="matrix" values="0 0 0 0 0.00784314 0 0 0 0 0.482353 0 0 0 0 0.313726 0 0 0 1 0"/>
<feBlend mode="normal" in2="shape" result="effect1_innerShadow_627_2495"/>
</filter>
<filter id="filter8_i_627_2495" x="490.474" y="19.3855" width="61.0542" height="53.5065" filterUnits="userSpaceOnUse" color-interpolation-filters="sRGB">
<feFlood flood-opacity="0" result="BackgroundImageFix"/>
<feBlend mode="normal" in="SourceGraphic" in2="BackgroundImageFix" result="shape"/>
<feColorMatrix in="SourceAlpha" type="matrix" values="0 0 0 0 0 0 0 0 0 0 0 0 0 0 0 0 0 0 127 0" result="hardAlpha"/>
<feOffset dx="-16" dy="-2"/>
<feComposite in2="hardAlpha" operator="arithmetic" k2="-1" k3="1"/>
<feColorMatrix type="matrix" values="0 0 0 0 0.858824 0 0 0 0 0.286275 0 0 0 0 0.329412 0 0 0 1 0"/>
<feBlend mode="normal" in2="shape" result="effect1_innerShadow_627_2495"/>
</filter>
<filter id="filter9_i_627_2495" x="118.292" y="412.752" width="61.9324" height="52.6836" filterUnits="userSpaceOnUse" color-interpolation-filters="sRGB">
<feFlood flood-opacity="0" result="BackgroundImageFix"/>
<feBlend mode="normal" in="SourceGraphic" in2="BackgroundImageFix" result="shape"/>
<feColorMatrix in="SourceAlpha" type="matrix" values="0 0 0 0 0 0 0 0 0 0 0 0 0 0 0 0 0 0 127 0" result="hardAlpha"/>
<feOffset dx="-10" dy="2"/>
<feComposite in2="hardAlpha" operator="arithmetic" k2="-1" k3="1"/>
<feColorMatrix type="matrix" values="0 0 0 0 0.858824 0 0 0 0 0.286275 0 0 0 0 0.329412 0 0 0 1 0"/>
<feBlend mode="normal" in2="shape" result="effect1_innerShadow_627_2495"/>
</filter>
</defs>
</svg>
