<svg width="36" height="34" viewBox="0 0 36 34" fill="none" xmlns="http://www.w3.org/2000/svg">
<path d="M13.4246 11.9721C12.7652 16.2794 11.4342 19.67 6.20818 18.7519C1.71675 17.357 1.70431 12.9456 2.73784 8.47061C3.77137 3.9956 7.04347 1.09823 10.0173 1.88193C12.9911 2.66562 14.084 7.66474 13.4246 11.9721Z" stroke="white" stroke-width="3.5"/>
<path d="M13.1034 8.10167C13.1728 9.75707 11.8871 11.1553 10.2317 11.2248C8.57631 11.2942 7.17806 10.0085 7.10863 8.35311C7.0392 6.69771 8.32488 5.29946 9.98027 5.23003C11.6357 5.16059 13.0339 6.44627 13.1034 8.10167Z" fill="white"/>
<path d="M32.4275 13.9726C31.7692 18.2801 30.4392 21.671 25.2129 20.7542C20.7211 19.3605 20.7075 14.9491 21.7399 10.4739C22.7723 5.99857 26.0436 3.10037 29.0177 3.8833C31.9917 4.66624 33.0858 9.66507 32.4275 13.9726Z" stroke="white" stroke-width="3.5"/>
<path d="M32.105 10.1023C32.1749 11.7576 30.8896 13.1562 29.2342 13.2261C27.5788 13.2959 26.1802 12.0106 26.1104 10.3552C26.0405 8.69985 27.3258 7.30127 28.9812 7.23141C30.6366 7.16156 32.0352 8.44688 32.105 10.1023Z" fill="white"/>
<path d="M27.3146 30.2271C26.6724 30.7265 25.9884 31.2114 25.2625 31.6817C24.5567 32.1775 23.7477 32.6065 22.8356 32.9689C21.9235 33.3312 20.8989 33.6019 19.7618 33.7809C18.6447 33.9855 17.3644 34.0468 15.9209 33.9649C13.7345 33.8408 11.7491 33.3141 9.96466 32.3848C8.20021 31.4809 6.64679 30.1871 5.30434 28.5034C5.06412 28.1975 4.9661 27.8144 5.0103 27.3541C5.07572 26.8951 5.20879 26.5738 5.40951 26.3904C5.63387 26.1595 5.91707 26.0294 6.25912 26.0001C6.59998 25.9951 6.93173 26.1723 7.25444 26.5316C8.56052 28.0914 9.92076 29.2037 11.3352 29.8686C12.7496 30.5333 14.2529 30.9109 15.8449 31.0012C16.9699 31.0651 17.95 31.0476 18.7851 30.9489C19.6202 30.8501 20.4065 30.6633 21.1439 30.3885C21.8802 30.138 22.6219 29.7782 23.369 29.3091C24.1149 28.8642 24.9718 28.3283 25.9396 27.7012C26.3362 27.4314 26.7025 27.3427 27.0385 27.4348C27.3946 27.5524 27.6502 27.7617 27.8055 28.0629C27.9809 28.3894 28.0376 28.7458 27.9758 29.132C27.9341 29.5437 27.7136 29.9087 27.3146 30.2271Z" fill="white"/>
</svg>
