<svg width="152" height="78" viewBox="0 0 152 78" fill="none" xmlns="http://www.w3.org/2000/svg">
<path d="M11.9365 50.28C9.5045 52.072 0.8645 45.288 4.3205 43.24C14.8805 37.032 20.7045 29.096 21.2165 18.664C21.2805 16.872 24.0325 15.848 26.5925 15.848C28.8325 15.848 31.0085 16.616 31.0085 18.344C30.9445 22.824 30.1765 26.92 28.6405 30.696C35.5525 33.896 41.5045 37.864 46.1765 42.28C46.7525 42.856 47.0085 43.56 47.0085 44.264C47.0085 47.528 42.2085 51.688 40.2245 49.512C36.1925 45.096 30.9445 41.064 24.9285 37.416C21.7285 42.024 17.3125 46.248 11.9365 50.28ZM5.4085 56.296C13.1525 57 21.5365 57.32 29.8565 57.32C35.1685 57.32 40.4805 57.192 45.4725 56.936C47.0085 56.872 47.7765 58.536 47.7765 60.264C47.7765 61.992 47.0085 63.848 45.2805 64.168C37.7925 65.512 27.1685 66.216 17.8885 66.216C13.2165 66.216 8.9285 66.024 5.5365 65.704C3.9365 65.576 3.2325 63.08 3.2325 60.712C3.2325 58.344 3.9365 56.104 5.4085 56.296ZM91.5525 40.552C91.1685 44.264 81.6325 46.248 72.2885 46.248C63.5205 46.248 55.0085 44.456 54.8805 40.616C54.8165 39.016 54.8165 37.48 54.8165 35.88C54.8165 30.248 55.1365 24.744 55.9045 19.24C56.2245 17.384 58.0165 16.552 60.0005 16.424C63.0085 16.232 66.0165 16.168 69.0245 16.168C74.9765 16.168 80.9285 16.488 86.7525 17C89.6325 17.256 90.6565 18.472 90.9125 20.648C91.5525 24.808 91.9365 29.352 91.9365 33.704C91.9365 36.072 91.8085 38.376 91.5525 40.552ZM53.4085 49.576C61.1525 50.28 69.5365 50.6 77.8565 50.6C83.1685 50.6 88.4805 50.472 93.4725 50.216C95.0085 50.152 95.7765 51.816 95.7765 53.544C95.7765 55.272 95.0085 57.128 93.2805 57.448C89.1205 58.216 84.0005 58.792 78.6885 59.112L79.2005 72.744C79.2645 74.152 76.3205 74.92 73.4405 74.92C70.7525 74.92 68.1925 74.216 68.1925 72.744C68.2565 69.16 68.3845 63.976 68.3845 59.496H66.2725C61.4725 59.496 56.9925 59.304 53.5365 58.984C51.9365 58.856 51.2325 56.36 51.2325 53.992C51.2325 51.624 51.9365 49.384 53.4085 49.576ZM65.1205 35.688C65.1845 37.096 69.4085 37.864 73.4405 37.864C77.6005 37.864 81.8885 37.096 81.8885 35.56C81.8885 30.312 81.6965 27.88 81.3765 25.512C81.3125 24.936 80.9285 24.424 79.8405 24.36C77.9845 24.232 76.0645 24.168 74.0805 24.168C71.8405 24.168 69.4725 24.232 67.1045 24.36C65.8245 24.424 65.5045 24.872 65.4405 25.576C65.1205 28.008 65.0565 30.184 65.0565 32.296C65.0565 33.448 65.0565 34.6 65.1205 35.688ZM136.481 63.592C137.185 57.832 137.377 50.024 137.377 42.152C137.377 35.944 137.249 29.672 137.057 24.232C136.993 22.504 139.297 21.48 141.537 21.48C143.393 21.48 145.185 22.184 145.505 23.912C146.785 31.784 147.361 41.96 147.361 51.176C147.361 55.848 147.233 60.328 146.913 64.04C146.785 65.576 144.545 66.216 142.177 66.216C139.297 66.216 136.289 65.256 136.481 63.592ZM111.457 47.72C111.585 49.256 113.121 49.704 114.593 49.832C116.128 49.96 117.729 50.024 119.457 50.024C123.425 50.024 127.777 49.704 131.361 49.256C132.641 49.128 133.601 51.304 133.601 53.224C133.601 54.504 133.217 55.72 132.193 55.976C126.817 57.448 120.993 58.408 115.361 58.408C112.097 58.408 108.833 58.088 105.825 57.384C103.649 56.872 102.305 55.016 101.985 52.968C101.729 51.24 101.601 48.744 101.601 45.928C101.601 39.784 102.177 32.232 102.817 28.52C103.265 26.28 105.057 25 107.105 24.808C109.729 24.552 112.353 24.424 115.041 24.424C119.521 24.424 124.065 24.744 128.417 25.192C130.208 25.384 131.041 27.176 131.041 28.968C131.041 30.888 130.081 32.744 128.289 32.744C124.833 32.744 117.089 32.808 113.569 33.32C112.289 33.512 111.777 34.472 111.649 35.816C111.393 38.376 111.265 40.872 111.265 43.304C111.265 44.776 111.329 46.248 111.457 47.72Z" fill="#064C37"/>
<path d="M70.6846 14.7032C70.1938 17.1576 69.5175 18.8435 68.4175 19.8059C67.4211 20.6776 65.7511 21.2185 62.5513 20.5479C60.0227 19.685 59.0256 18.3517 58.6624 16.8464C58.2543 15.1552 58.5821 12.988 59.3241 10.4447C60.0058 8.10809 61.3083 6.07282 62.8198 4.77747C64.3372 3.477 65.8916 3.04543 67.2349 3.43736C68.4883 3.80303 69.6344 5.18246 70.3361 7.49327C71.0164 9.73365 71.1367 12.4427 70.6846 14.7032Z" stroke="#064C37" stroke-width="3"/>
<path d="M87.6846 15.7032C87.1938 18.1576 86.5175 19.8435 85.4175 20.8059C84.4211 21.6776 82.7511 22.2185 79.5513 21.5479C77.0227 20.685 76.0256 19.3517 75.6624 17.8464C75.2543 16.1552 75.5821 13.988 76.3241 11.4447C77.0058 9.10809 78.3083 7.07282 79.8198 5.77747C81.3372 4.477 82.8916 4.04543 84.2349 4.43736C85.4883 4.80303 86.6344 6.18246 87.3361 8.49327C88.0164 10.7337 88.1367 13.4427 87.6846 15.7032Z" stroke="#064C37" stroke-width="3"/>
<path d="M70.8404 11C70.8404 12.6569 69.533 14 67.9203 14C66.3076 14 65.0002 12.6569 65.0002 11C65.0002 9.34315 66.3076 8 67.9203 8C69.533 8 70.8404 9.34315 70.8404 11Z" fill="#064C37"/>
<path d="M87.8404 11C87.8404 12.6569 86.533 14 84.9203 14C83.3076 14 82.0002 12.6569 82.0002 11C82.0002 9.34315 83.3076 8 84.9203 8C86.533 8 87.8404 9.34315 87.8404 11Z" fill="#064C37"/>
</svg>
